<?xml version="1.0" encoding="UTF-8"?>
<svg width="120px" height="120px" viewBox="0 0 120 120" version="1.1" xmlns="http://www.w3.org/2000/svg" xmlns:xlink="http://www.w3.org/1999/xlink">
    <!-- Generator: Sketch 56.3 (81716) - https://sketch.com -->
    <title>12</title>
    <desc>Created with Sketch.</desc>
    <defs>
        <polygon id="path-1" points="0 120 119.860581 120 119.860581 0.139419087 0 0.139419087"></polygon>
    </defs>
    <g id="12" stroke="none" stroke-width="1" fill="none" fill-rule="evenodd">
        <g id="Group-51">
            <polygon id="Fill-1" fill="#BF8B2E" points="0 120 120 120 120 5.82867088e-16 0 5.82867088e-16"></polygon>
            <g id="Group-50" transform="translate(0.000000, 0.026556)">
                <path d="M10.2788382,15.0793195 C10.0717012,15.1921826 9.46987552,15.4277012 8.47302905,15.7847137 C7.68298755,16.0482822 7.18423237,16.2268714 6.97759336,16.3208133 L6.97759336,13.076 C7.61692946,12.8316846 8.39286307,12.4552531 9.30539419,11.9473693 C10.2175934,11.4394855 10.8617427,10.9787386 11.2381743,10.5647967 L14.6522822,10.5647967 L14.6522822,33.4195685 L10.2788382,33.4195685 L10.2788382,15.0793195 Z" id="Fill-2" fill="#FFFFFF"></path>
                <path d="M17.078639,30.344083 L22.6089295,21.7947054 L22.9475187,21.2868216 C23.6622075,20.2146224 24.1890124,19.3165311 24.5276017,18.5922158 C24.8661909,17.8682324 25.0354855,17.0733776 25.0354855,16.2079834 C25.0354855,15.4743734 24.8944066,14.9148714 24.612249,14.5291452 C24.3300913,14.143751 23.925444,13.950722 23.398971,13.950722 C22.6089295,13.950722 22.0630373,14.2518008 21.7624564,14.8536266 C21.4613776,15.4557842 21.3110041,16.2833361 21.3110041,17.3366141 L21.3110041,18.3805975 L17.078639,18.3805975 L17.078639,17.2519668 C17.078639,15.1075685 17.5817095,13.4101411 18.5881826,12.1590207 C19.5941577,10.9082324 21.1699253,10.2826722 23.3143237,10.2826722 C25.2894274,10.2826722 26.7893444,10.8046639 27.8147386,11.8486473 C28.8396349,12.8926307 29.3524979,14.3739585 29.3524979,16.2926307 C29.3524979,17.1580249 29.2207137,17.9762822 28.9574772,18.7474025 C28.6937427,19.5188548 28.3833693,20.2053278 28.0263568,20.8071535 C27.6688465,21.4093112 27.1138257,22.2650788 26.3616266,23.3747884 L21.9599668,29.977278 L28.7599668,29.977278 L28.7599668,33.4196017 L17.078639,33.4196017 L17.078639,30.344083 Z" id="Fill-4" fill="#FFFFFF"></path>
                <path d="M39.7288797,14.2816266 L40.113278,14.2816266 C40.5838174,14.2816266 40.9184232,14.1815436 41.1169295,13.9813776 C41.3152697,13.7812116 41.4145228,13.438805 41.4145228,12.9541577 C41.4145228,12.4871037 41.3285477,12.1526639 41.1564315,11.9506722 C40.9841494,11.7486805 40.6681328,11.6477676 40.2082158,11.6477676 L39.7288797,11.6477676 L39.7288797,14.2816266 Z M38.1380083,19.2859419 L38.1380083,10.552 L40.139834,10.552 C40.599751,10.552 40.9947718,10.5898423 41.3248963,10.665361 C41.6550207,10.7408797 41.9421577,10.8673527 42.1863071,11.0446141 C42.4302905,11.2218755 42.613029,11.4625394 42.7340249,11.7662739 C42.8553527,12.0700083 42.9157676,12.4414606 42.9157676,12.8804647 C42.9157676,13.4281826 42.8342739,13.8759834 42.6709544,14.2237012 C42.5076349,14.5714191 42.2379253,14.8241992 41.8623237,14.9822075 L43.0737759,19.2859419 L41.4777593,19.2859419 L40.4347718,15.2982241 L39.7288797,15.2982241 L39.7288797,19.2859419 L38.1380083,19.2859419 Z" id="Fill-6" fill="#FFFFFF"></path>
                <polygon id="Fill-8" fill="#FFFFFF" points="43.7985062 19.2859917 43.7985062 10.5520498 47.4542739 10.5520498 47.4542739 11.6740415 45.3893776 11.6740415 45.3893776 14.1815934 47.0224066 14.1815934 47.0224066 15.3035851 45.3893776 15.3035851 45.3893776 18.1850788 47.4806639 18.1850788 47.4806639 19.2859917"></polygon>
                <path d="M50.2756017,19.3913527 C48.7373444,19.3913527 47.9295436,18.502888 47.8523651,16.7257925 L49.2377593,16.436166 C49.2729461,17.5915187 49.6029046,18.169278 50.2281328,18.169278 C50.4704564,18.169278 50.6503734,18.0954191 50.7682158,17.9480332 C50.8857261,17.8004813 50.9444813,17.6021411 50.9444813,17.3526805 C50.9444813,17.1103568 50.9006639,16.8882822 50.8128631,16.6862905 C50.7250622,16.4844647 50.6233195,16.3194855 50.5073029,16.1911867 C50.3914523,16.0630539 50.2263071,15.9040498 50.0121992,15.7145062 L48.8638174,14.7188216 C48.526722,14.4238838 48.2754357,14.1174938 48.1104564,13.7996515 C47.9454772,13.4818091 47.8629876,13.0841328 47.8629876,12.6064564 C47.8629876,11.9287801 48.0621577,11.4019751 48.4608299,11.0262075 C48.8593361,10.6504398 49.40639,10.4590705 50.1016598,10.4519336 C50.4213278,10.4484481 50.7039834,10.4879502 50.9497925,10.5704398 C51.1956017,10.6530954 51.3984232,10.7636349 51.5584232,10.90239 C51.7179253,11.0411452 51.8513693,11.2140913 51.9587552,11.4212282 C52.0656432,11.6285311 52.1456432,11.8434689 52.1982573,12.0665394 C52.2508714,12.28961 52.2878838,12.5379087 52.3089627,12.8119336 L50.9497925,13.0806473 C50.9428216,12.9050456 50.9313693,12.7523485 50.9156017,12.6222241 C50.899834,12.4924315 50.8726141,12.3606473 50.8339419,12.2272033 C50.7952697,12.0937593 50.7451452,11.9857095 50.6839004,11.9032199 C50.6223237,11.8207303 50.539834,11.7548382 50.4362656,11.7057095 C50.3326971,11.6565809 50.2123651,11.6371618 50.0754357,11.6477842 C49.840083,11.6618921 49.66,11.7399004 49.5355187,11.8821411 C49.4107054,12.0243817 49.3484647,12.2149212 49.3484647,12.4537593 C49.3484647,12.7347552 49.4037344,12.9656266 49.5144398,13.1463734 C49.6249793,13.3272863 49.7979253,13.5213112 50.033278,13.7284481 L51.1712033,14.7188216 C51.3607469,14.8909378 51.5257261,15.0577427 51.6663071,15.2192365 C51.806722,15.3808963 51.9409959,15.5652946 52.0692946,15.7724315 C52.1974274,15.9795685 52.2948548,16.2079502 52.3615768,16.4572448 C52.4282988,16.7065394 52.4616598,16.9699419 52.4616598,17.2474523 C52.4616598,17.8831369 52.2606639,18.3993195 51.8585062,18.796166 C51.4563485,19.1930124 50.9288797,19.3913527 50.2756017,19.3913527" id="Fill-10" fill="#FFFFFF"></path>
                <path d="M54.6612946,14.2658091 L55.172166,14.2658091 C55.6216266,14.2658091 55.925527,14.1771784 56.0835353,13.999751 C56.2415436,13.8224896 56.3205477,13.4966805 56.3205477,13.0226556 C56.3205477,12.7522822 56.3100913,12.5433195 56.2890124,12.3957676 C56.2679336,12.2482158 56.218805,12.1139419 56.1414606,11.9927801 C56.0641162,11.8716183 55.9492614,11.7882988 55.7965643,11.7424896 C55.6437012,11.6968465 55.4373942,11.6741079 55.1774772,11.6741079 L54.6612946,11.6741079 L54.6612946,14.2658091 Z M53.0704232,19.2860581 L53.0704232,10.5521162 L55.5831203,10.5521162 C57.072083,10.5521162 57.8166473,11.3790041 57.8166473,13.033112 C57.8166473,13.8443983 57.6128299,14.4387552 57.205527,14.8163485 C56.7982241,15.1937759 56.2239502,15.3826556 55.4830373,15.3826556 L54.6612946,15.3826556 L54.6612946,19.2860581 L53.0704232,19.2860581 Z" id="Fill-12" fill="#FFFFFF"></path>
                <path d="M60.3192033,18.142888 C60.4297427,18.1885311 60.5623568,18.2114357 60.7168797,18.2114357 C60.8714025,18.2114357 61.0030207,18.1885311 61.1119004,18.142888 C61.2209461,18.0972448 61.307751,18.0374938 61.3728133,17.9638008 C61.4377095,17.8901079 61.4886639,17.7935104 61.5255104,17.6740083 C61.5623568,17.5546722 61.5869212,17.4353361 61.5992033,17.315834 C61.6114855,17.1964979 61.6176266,17.0542573 61.6176266,16.889112 L61.6176266,12.922473 C61.6176266,12.7118506 61.6071701,12.536249 61.5860913,12.395834 C61.5650124,12.2552531 61.5236846,12.122805 61.4622739,11.9979917 C61.4008631,11.8735104 61.3085809,11.7803983 61.1857593,11.7188216 C61.0627718,11.6574108 60.9065892,11.6267054 60.7168797,11.6267054 C60.5273361,11.6267054 60.3701577,11.6574108 60.2455104,11.7188216 C60.1208631,11.7803983 60.0285809,11.8735104 59.9689959,11.9979917 C59.9090788,12.122805 59.8687469,12.2552531 59.847668,12.395834 C59.8265892,12.536249 59.8161328,12.7118506 59.8161328,12.922473 L59.8161328,16.889112 C59.8161328,17.0542573 59.8222739,17.1964979 59.834556,17.315834 C59.8468382,17.4353361 59.8714025,17.5546722 59.908249,17.6740083 C59.9450954,17.7935104 59.9952199,17.8901079 60.0584564,17.9638008 C60.1216929,18.0374938 60.2084979,18.0972448 60.3192033,18.142888 M60.7168797,19.3913527 C59.8177925,19.3913527 59.1734772,19.1473693 58.7836017,18.6590705 C58.3937261,18.1709378 58.1990373,17.4564149 58.1990373,16.5151701 L58.1990373,13.2912697 C58.1990373,12.8277012 58.2426888,12.4257095 58.3306556,12.0849627 C58.4184564,11.7443817 58.5597012,11.449278 58.754556,11.1999834 C58.9495768,10.9506888 59.2103237,10.7636349 59.5369627,10.6389876 C59.8636017,10.5143402 60.2567967,10.4519336 60.7168797,10.4519336 C61.6124813,10.4519336 62.2559668,10.6925975 62.6475021,11.1735934 C63.0392033,11.6547552 63.234888,12.3606473 63.234888,13.2912697 L63.234888,16.5151701 C63.234888,16.9717676 63.1900747,17.3729295 63.1006141,17.7188216 C63.0109876,18.0647137 62.8687469,18.3649627 62.6738921,18.6197344 C62.4790373,18.8743402 62.2181245,19.0665394 61.8916515,19.1964979 C61.5650124,19.3262905 61.1733112,19.3913527 60.7168797,19.3913527" id="Fill-14" fill="#FFFFFF"></path>
                <polygon id="Fill-16" fill="#FFFFFF" points="64.0753527 19.2859917 64.0753527 10.5520498 65.1711203 10.5520498 67.3097095 15.4984398 67.3097095 10.5520498 68.626722 10.5520498 68.626722 19.2859917 67.5837344 19.2859917 65.4239004 14.0866556 65.4239004 19.2859917"></polygon>
                <path d="M71.8113527,19.3913527 C70.2730954,19.3913527 69.4654606,18.502888 69.3881162,16.7257925 L70.7736763,16.436166 C70.8086971,17.5915187 71.1388216,18.169278 71.7640498,18.169278 C72.0063734,18.169278 72.1862905,18.0954191 72.3039668,17.9480332 C72.4216432,17.8004813 72.4803983,17.6021411 72.4803983,17.3526805 C72.4803983,17.1103568 72.4365809,16.8882822 72.3486141,16.6862905 C72.2608133,16.4844647 72.1590705,16.3194855 72.0430539,16.1911867 C71.9272033,16.0630539 71.7622241,15.9040498 71.5479502,15.7145062 L70.3995685,14.7188216 C70.062473,14.4238838 69.8113527,14.1174938 69.6463734,13.7996515 C69.4812282,13.4818091 69.3987386,13.0841328 69.3987386,12.6064564 C69.3987386,11.9287801 69.5980747,11.4019751 69.9965809,11.0262075 C70.3952531,10.6504398 70.9423071,10.4590705 71.6375768,10.4519336 C71.9570788,10.4484481 72.2397344,10.4879502 72.4855436,10.5704398 C72.7315187,10.6530954 72.9343402,10.7636349 73.0941743,10.90239 C73.2538423,11.0411452 73.3872863,11.2140913 73.4945062,11.4212282 C73.6015602,11.6285311 73.6815602,11.8434689 73.7341743,12.0665394 C73.7867884,12.28961 73.8236349,12.5379087 73.8447137,12.8119336 L72.4855436,13.0806473 C72.4787386,12.9050456 72.4671203,12.7523485 72.4513527,12.6222241 C72.4355851,12.4924315 72.4083651,12.3606473 72.3696929,12.2272033 C72.3311867,12.0937593 72.2810622,11.9857095 72.2196515,11.9032199 C72.1582407,11.8207303 72.0755851,11.7548382 71.9720166,11.7057095 C71.8684481,11.6565809 71.7481162,11.6371618 71.6111867,11.6477842 C71.375834,11.6618921 71.195917,11.7399004 71.0712697,11.8821411 C70.9466224,12.0243817 70.8842158,12.2149212 70.8842158,12.4537593 C70.8842158,12.7347552 70.9394855,12.9656266 71.0501909,13.1463734 C71.1607303,13.3272863 71.3336763,13.5213112 71.569029,13.7284481 L72.7069544,14.7188216 C72.8964979,14.8909378 73.0614772,15.0577427 73.2020581,15.2192365 C73.342639,15.3808963 73.4767469,15.5652946 73.6050456,15.7724315 C73.7331784,15.9795685 73.8306058,16.2079502 73.8973278,16.4572448 C73.9642158,16.7065394 73.9975768,16.9699419 73.9975768,17.2474523 C73.9975768,17.8831369 73.7964149,18.3993195 73.3942573,18.796166 C72.9920996,19.1930124 72.4646307,19.3913527 71.8113527,19.3913527" id="Fill-18" fill="#FFFFFF"></path>
                <mask id="mask-2" fill="white">
                    <use xlink:href="#path-1"></use>
                </mask>
                <g id="Clip-21"></g>
                <polygon id="Fill-20" fill="#FFFFFF" mask="url(#mask-2)" points="74.65361 19.2859751 76.2234025 19.2859751 76.2234025 10.5520332 74.65361 10.5520332"></polygon>
                <path d="M78.8340083,18.1639668 L79.4185726,18.1639668 C79.8927635,18.1639668 80.2210622,18.0532614 80.4038008,17.8320166 C80.5863734,17.6107718 80.6776598,17.2456266 80.6776598,16.7364149 C80.6776598,16.20961 80.5749212,15.8277012 80.36961,15.5906888 C80.1641328,15.3536763 79.8190705,15.2351701 79.3344232,15.2351701 L78.8340083,15.2351701 L78.8340083,18.1639668 Z M78.8340083,14.1130124 L79.329112,14.1130124 C79.796166,14.1130124 80.1174938,14.0129295 80.2930954,13.8127635 C80.4686971,13.6125975 80.5564979,13.2755021 80.5564979,12.8013112 C80.5564979,12.5555021 80.5276183,12.356166 80.469527,12.2034689 C80.4117676,12.0506058 80.3141743,11.935751 80.1772448,11.8584066 C80.0403154,11.7812282 79.8884481,11.7302739 79.7216432,11.7057095 C79.5548382,11.6811452 79.3325975,11.6688631 79.0552531,11.6688631 L78.8340083,11.6688631 L78.8340083,14.1130124 Z M77.2431369,19.2859585 L77.2431369,10.5520166 L79.3818921,10.5520166 C79.7855436,10.5520166 80.1377427,10.5880332 80.4379917,10.6600664 C80.7384066,10.7320996 81.0051286,10.8514357 81.2386556,11.0182407 C81.4723485,11.1850456 81.6486141,11.415917 81.7681162,11.7110207 C81.8874523,12.0059585 81.9453776,12.362473 81.9420581,12.7802324 C81.9384066,13.8585726 81.5100249,14.4607303 80.6565809,14.5872033 C81.1729295,14.6854606 81.5581577,14.9111867 81.8129295,15.2640498 C82.0673693,15.6170788 82.1964979,16.1131784 82.2000308,16.7521826 C82.2036349,17.5810622 81.996332,18.2106058 81.5784066,18.6408133 C81.1606473,19.0708548 80.5513527,19.2859585 79.7505228,19.2859585 L77.2431369,19.2859585 Z" id="Fill-22" fill="#FFFFFF" mask="url(#mask-2)"></path>
                <polygon id="Fill-23" fill="#FFFFFF" mask="url(#mask-2)" points="82.9089959 19.2859917 82.9089959 10.5520498 84.4998672 10.5520498 84.4998672 18.1850788 86.5911535 18.1850788 86.5911535 19.2859917"></polygon>
                <polygon id="Fill-24" fill="#FFFFFF" mask="url(#mask-2)" points="87.1102407 19.2859917 87.1102407 10.5520498 90.7660083 10.5520498 90.7660083 11.6740415 88.701112 11.6740415 88.701112 14.1815934 90.3341411 14.1815934 90.3341411 15.3035851 88.701112 15.3035851 88.701112 18.1850788 90.7925643 18.1850788 90.7925643 19.2859917"></polygon>
                <path d="M40.4820913,33.6652116 C40.1063237,33.6652116 39.7743734,33.6177427 39.4865726,33.522971 C39.1986058,33.4281992 38.9605975,33.2964149 38.7727137,33.1279502 C38.5848299,32.9593195 38.4319668,32.7503568 38.3144564,32.5010622 C38.1966141,32.2517676 38.1142905,31.9840498 38.0668216,31.6977427 C38.0195187,31.4114357 37.9957842,31.089278 37.9957842,30.7311037 L37.9957842,27.6862905 C37.9957842,27.3070373 38.0203485,26.9707718 38.0694772,26.6774938 C38.1186058,26.3843817 38.2012614,26.1121826 38.317112,25.8608963 C38.4329627,25.6099419 38.5848299,25.4036349 38.7727137,25.2419751 C38.9605975,25.0804813 39.19761,24.9541743 39.483917,24.862722 C39.7700581,24.7716017 40.1028382,24.7257925 40.4820913,24.7257925 C40.91761,24.7257925 41.2897261,24.7837178 41.5989378,24.8995685 C41.9079834,25.0155851 42.1521328,25.1858755 42.3312199,25.4106058 C42.5103071,25.6355021 42.6400996,25.8979087 42.7209295,26.1981577 C42.8017593,26.4984066 42.8420913,26.8487801 42.8420913,27.249112 L42.8420913,27.9971618 L41.3091452,27.9971618 L41.3091452,27.2544232 C41.3091452,26.8189046 41.2864066,26.5256266 41.2405975,26.3745892 C41.1494772,26.0796515 40.9264066,25.9216432 40.5717178,25.9005643 L40.4874025,25.9005643 C40.3539585,25.9005643 40.237112,25.916332 40.137195,25.9478672 C40.0369461,25.9795685 39.9552863,26.029527 39.8920498,26.0980747 C39.8288133,26.1664564 39.7780249,26.2394855 39.7393527,26.3166639 C39.7006805,26.3940083 39.6716349,26.4949212 39.6525477,26.6195685 C39.6331286,26.7442158 39.6210124,26.8592365 39.6155353,26.9646307 C39.61039,27.0700249 39.6075685,27.2034689 39.6075685,27.3649627 L39.6075685,31.062888 C39.6075685,31.575751 39.6716349,31.9408963 39.8000996,32.1586556 C39.9280664,32.3764149 40.157278,32.4852946 40.4874025,32.4852946 C40.5997676,32.4852946 40.6990207,32.4721826 40.7849959,32.4456266 C40.8711369,32.4194025 40.9430041,32.3860415 41.0010954,32.3457095 C41.0590207,32.3053776 41.1079834,32.2474523 41.1486473,32.1717676 C41.1888133,32.096249 41.2195187,32.0262075 41.2405975,31.9609793 C41.2616763,31.896083 41.27761,31.8056266 41.2880664,31.6897759 C41.2986888,31.5739253 41.3046639,31.475668 41.3066556,31.3948382 C41.3083154,31.3140083 41.3091452,31.2034689 41.3091452,31.062888 L41.3091452,30.2833029 L42.8420913,30.2833029 L42.8420913,30.9996515 C42.8420913,31.3262905 42.8191867,31.6195685 42.7737095,31.8794855 C42.7279004,32.1394025 42.6498921,32.3833859 42.5393527,32.6116017 C42.4286473,32.8399834 42.2854108,33.029527 42.1099751,33.1805643 C41.9342075,33.3316017 41.7096432,33.4501079 41.4356183,33.536249 C41.1617593,33.6222241 40.843917,33.6652116 40.4820913,33.6652116" id="Fill-25" fill="#FFFFFF" mask="url(#mask-2)"></path>
                <path d="M45.5974938,32.4167469 C45.7080332,32.46239 45.8406473,32.4852946 45.9951701,32.4852946 C46.149527,32.4852946 46.2813112,32.46239 46.3901909,32.4167469 C46.4990705,32.3711037 46.5858755,32.3113527 46.6511037,32.2376598 C46.715834,32.1639668 46.7669544,32.0673693 46.8038008,31.9478672 C46.8406473,31.8285311 46.8652116,31.709195 46.8774938,31.5896929 C46.8897759,31.4703568 46.895917,31.3281162 46.895917,31.162971 L46.895917,27.196332 C46.895917,26.9857095 46.8854606,26.8101079 46.8643817,26.6696929 C46.8433029,26.529112 46.8019751,26.3966639 46.7405643,26.2718506 C46.6791535,26.1473693 46.5868714,26.0542573 46.4640498,25.9926805 C46.3408963,25.9312697 46.1847137,25.9005643 45.9951701,25.9005643 C45.8054606,25.9005643 45.6482822,25.9312697 45.5238008,25.9926805 C45.3989876,26.0542573 45.3067054,26.1473693 45.2471203,26.2718506 C45.1873693,26.3966639 45.1470373,26.529112 45.1259585,26.6696929 C45.1048797,26.8101079 45.0944232,26.9857095 45.0944232,27.196332 L45.0944232,31.162971 C45.0944232,31.3281162 45.1003983,31.4703568 45.1128465,31.5896929 C45.1249627,31.709195 45.1496929,31.8285311 45.1865394,31.9478672 C45.2233859,32.0673693 45.2735104,32.1639668 45.3367469,32.2376598 C45.3999834,32.3113527 45.4867884,32.3711037 45.5974938,32.4167469 M45.9951701,33.6652116 C45.096083,33.6652116 44.4517676,33.4212282 44.0618921,32.9329295 C43.6720166,32.4447967 43.4771618,31.7302739 43.4771618,30.789029 L43.4771618,27.5651286 C43.4771618,27.1015602 43.5209793,26.6995685 43.6089461,26.3588216 C43.6965809,26.0182407 43.8379917,25.7231369 44.0328465,25.4738423 C44.2278672,25.2245477 44.4884481,25.0374938 44.8150871,24.9128465 C45.1417261,24.7881992 45.5350871,24.7257925 45.9951701,24.7257925 C46.8906058,24.7257925 47.5340913,24.9664564 47.9257925,25.4474523 C48.3173278,25.9286141 48.5130124,26.6345062 48.5130124,27.5651286 L48.5130124,30.789029 C48.5130124,31.2456266 48.4683651,31.6467884 48.3789046,31.9926805 C48.289278,32.3385726 48.1470373,32.6388216 47.9521826,32.8935934 C47.7573278,33.1481992 47.4964149,33.3403983 47.1699419,33.4703568 C46.8433029,33.6001494 46.4516017,33.6652116 45.9951701,33.6652116" id="Fill-26" fill="#FFFFFF" mask="url(#mask-2)"></path>
                <polygon id="Fill-27" fill="#FFFFFF" mask="url(#mask-2)" points="49.3536598 33.5598506 49.3536598 24.8259087 50.4494274 24.8259087 52.5880166 29.7722988 52.5880166 24.8259087 53.905029 24.8259087 53.905029 33.5598506 52.8620415 33.5598506 50.7022075 28.3605145 50.7022075 33.5598506"></polygon>
                <path d="M57.0896432,33.6652116 C55.5513859,33.6652116 54.743751,32.7767469 54.6664066,30.9996515 L56.0519668,30.7100249 C56.0869876,31.8653776 56.417112,32.4431369 57.0423402,32.4431369 C57.2846639,32.4431369 57.4645809,32.369278 57.5822573,32.2218921 C57.6999336,32.0743402 57.7586888,31.876 57.7586888,31.6265394 C57.7586888,31.3842158 57.7148714,31.1621411 57.6269046,30.9601494 C57.5391037,30.7583237 57.437361,30.5933444 57.3213444,30.4650456 C57.2054938,30.3369129 57.0405145,30.1779087 56.8262407,29.9883651 L55.6778589,28.9926805 C55.3407635,28.6977427 55.0896432,28.3913527 54.9246639,28.0735104 C54.7595187,27.755668 54.677029,27.3579917 54.677029,26.8803154 C54.677029,26.202639 54.8763651,25.675834 55.2748714,25.3000664 C55.6735436,24.9242988 56.2205975,24.7329295 56.9158672,24.7257925 C57.2353693,24.7223071 57.5180249,24.7618091 57.763834,24.8442988 C58.0098091,24.9269544 58.2126307,25.0374938 58.3724647,25.176249 C58.5321328,25.3150041 58.6655768,25.4879502 58.7727967,25.6950871 C58.8798506,25.90239 58.9598506,26.1173278 59.0124647,26.3403983 C59.0650788,26.5634689 59.1019253,26.8117676 59.1230041,27.0857925 L57.763834,27.3545062 C57.757029,27.1789046 57.7454108,27.0262075 57.7296432,26.896083 C57.7138755,26.7662905 57.6866556,26.6345062 57.6479834,26.5010622 C57.6094772,26.3676183 57.5593527,26.2595685 57.4979419,26.1770788 C57.4365311,26.0945892 57.3538755,26.0286971 57.2503071,25.9795685 C57.1467386,25.9304398 57.0264066,25.9110207 56.8894772,25.9216432 C56.6541245,25.935751 56.4742075,26.0137593 56.3495602,26.156 C56.2249129,26.2982407 56.1625062,26.4887801 56.1625062,26.7276183 C56.1625062,27.0086141 56.2177759,27.2394855 56.3284813,27.4202324 C56.4390207,27.6011452 56.6119668,27.7951701 56.8473195,28.0023071 L57.9852448,28.9926805 C58.1747884,29.1647967 58.3397676,29.3316017 58.4803485,29.4930954 C58.6209295,29.6547552 58.7550373,29.8391535 58.8833361,30.0462905 C59.0114689,30.2534274 59.1088963,30.4818091 59.1756183,30.7311037 C59.2425062,30.9803983 59.2758672,31.2438008 59.2758672,31.5213112 C59.2758672,32.1569959 59.0747054,32.6731784 58.6725477,33.0700249 C58.27039,33.4668714 57.7429212,33.6652116 57.0896432,33.6652116" id="Fill-28" fill="#FFFFFF" mask="url(#mask-2)"></path>
                <path d="M62.2762158,33.6652116 C61.8863402,33.6652116 61.548249,33.6195685 61.2622739,33.5282822 C60.9758008,33.4369959 60.7406141,33.3088631 60.5563817,33.1437178 C60.3718174,32.9787386 60.2244315,32.7671203 60.1138921,32.5088631 C60.0031867,32.2509378 59.9258423,31.9716017 59.8820249,31.6713527 C59.8380415,31.3711037 59.8161328,31.022556 59.8161328,30.6257095 L59.8161328,24.8258755 L61.3597012,24.8258755 L61.3597012,30.789029 C61.3597012,30.9926805 61.3648465,31.1666224 61.3753029,31.3105228 C61.3859253,31.4545892 61.4086639,31.6054606 61.4438506,31.7634689 C61.4788714,31.9216432 61.5289959,32.0479502 61.5940581,32.142888 C61.6589544,32.2376598 61.7484149,32.3166639 61.8627718,32.3799004 C61.9766307,32.4431369 62.114556,32.4746722 62.2762158,32.4746722 C62.4377095,32.4746722 62.5756349,32.4431369 62.6896598,32.3799004 C62.8038506,32.3166639 62.8916515,32.2376598 62.9530622,32.142888 C63.014473,32.0479502 63.0637676,31.9216432 63.1006141,31.7634689 C63.1374606,31.6054606 63.1601992,31.4554191 63.1691618,31.3131784 C63.1777925,31.1709378 63.1822739,30.996166 63.1822739,30.789029 L63.1822739,24.8258755 L64.7256763,24.8258755 L64.7256763,30.6257095 C64.7256763,31.022556 64.7037676,31.3711037 64.6597842,31.6713527 C64.6159668,31.9716017 64.5387884,32.2509378 64.428083,32.5088631 C64.3175436,32.7671203 64.1708216,32.9787386 63.988083,33.1437178 C63.8055104,33.3088631 63.5711535,33.4369959 63.2850124,33.5282822 C62.9987054,33.6195685 62.6624398,33.6652116 62.2762158,33.6652116" id="Fill-29" fill="#FFFFFF" mask="url(#mask-2)"></path>
                <polygon id="Fill-30" fill="#FFFFFF" mask="url(#mask-2)" points="65.624083 33.5598506 65.7663237 24.8259087 67.3993527 24.8259087 68.6635851 30.9628382 69.9646639 24.8259087 71.5610124 24.8259087 71.7083983 33.5598506 70.5074025 33.5598506 70.4020083 27.544083 69.1429212 33.5598506 68.210639 33.5598506 66.9357842 27.5230041 66.8410124 33.5598506"></polygon>
                <path d="M74.2661245,28.539668 L74.7771618,28.539668 C75.2266224,28.539668 75.5303568,28.4510373 75.6883651,28.27361 C75.8463734,28.0963485 75.9255436,27.7705394 75.9255436,27.2965145 C75.9255436,27.0261411 75.9150871,26.8171784 75.8940083,26.6696266 C75.8729295,26.5220747 75.8236349,26.3878008 75.7464564,26.266639 C75.669112,26.1454772 75.5540913,26.0621577 75.4013942,26.0163485 C75.2485311,25.9707054 75.0422241,25.9479668 74.7823071,25.9479668 L74.2661245,25.9479668 L74.2661245,28.539668 Z M72.6752531,33.559917 L72.6752531,24.8259751 L75.1881162,24.8259751 C76.6769129,24.8259751 77.4216432,25.6528631 77.4216432,27.306971 C77.4216432,28.1182573 77.2178257,28.7126141 76.8105228,29.0902075 C76.4030539,29.4676349 75.8289461,29.6565145 75.0878672,29.6565145 L74.2661245,29.6565145 L74.2661245,33.559917 L72.6752531,33.559917 Z" id="Fill-31" fill="#FFFFFF" mask="url(#mask-2)"></path>
                <polygon id="Fill-32" fill="#FFFFFF" mask="url(#mask-2)" points="78.7994855 33.5598506 78.7994855 26.0006805 77.3350871 26.0006805 77.3350871 24.8259087 81.8072863 24.8259087 81.8072863 26.0006805 80.3903568 26.0006805 80.3903568 33.5598506"></polygon>
                <polygon id="Fill-33" fill="#FFFFFF" mask="url(#mask-2)" points="82.22639 33.559834 83.7961826 33.559834 83.7961826 24.8258921 82.22639 24.8258921"></polygon>
                <path d="M86.7940083,32.4167469 C86.9045477,32.46239 87.0371618,32.4852946 87.1916846,32.4852946 C87.3460415,32.4852946 87.4778257,32.46239 87.5867054,32.4167469 C87.6955851,32.3711037 87.78239,32.3113527 87.8476183,32.2376598 C87.9123485,32.1639668 87.9634689,32.0673693 88.0003154,31.9478672 C88.0371618,31.8285311 88.0617261,31.709195 88.0740083,31.5896929 C88.0862905,31.4703568 88.0924315,31.3281162 88.0924315,31.162971 L88.0924315,27.196332 C88.0924315,26.9857095 88.0819751,26.8101079 88.0608963,26.6696929 C88.0398174,26.529112 87.9984896,26.3966639 87.9370788,26.2718506 C87.875668,26.1473693 87.7833859,26.0542573 87.6605643,25.9926805 C87.5374108,25.9312697 87.3812282,25.9005643 87.1916846,25.9005643 C87.0019751,25.9005643 86.8447967,25.9312697 86.7203154,25.9926805 C86.5955021,26.0542573 86.5032199,26.1473693 86.4436349,26.2718506 C86.3838838,26.3966639 86.3435519,26.529112 86.322473,26.6696929 C86.3013942,26.8101079 86.2909378,26.9857095 86.2909378,27.196332 L86.2909378,31.162971 C86.2909378,31.3281162 86.2969129,31.4703568 86.309361,31.5896929 C86.3214772,31.709195 86.3462075,31.8285311 86.3830539,31.9478672 C86.4199004,32.0673693 86.4700249,32.1639668 86.5332614,32.2376598 C86.5964979,32.3113527 86.6833029,32.3711037 86.7940083,32.4167469 M87.1916846,33.6652116 C86.2925975,33.6652116 85.6482822,33.4212282 85.2584066,32.9329295 C84.8685311,32.4447967 84.6736763,31.7302739 84.6736763,30.789029 L84.6736763,27.5651286 C84.6736763,27.1015602 84.7174938,26.6995685 84.8054606,26.3588216 C84.8930954,26.0182407 85.0345062,25.7231369 85.229361,25.4738423 C85.4243817,25.2245477 85.6849627,25.0374938 86.0116017,24.9128465 C86.3382407,24.7881992 86.7316017,24.7257925 87.1916846,24.7257925 C88.0871203,24.7257925 88.7306058,24.9664564 89.1223071,25.4474523 C89.5138423,25.9286141 89.709527,26.6345062 89.709527,27.5651286 L89.709527,30.789029 C89.709527,31.2456266 89.6648797,31.6467884 89.5754191,31.9926805 C89.4857925,32.3385726 89.3435519,32.6388216 89.1486971,32.8935934 C88.9538423,33.1481992 88.6929295,33.3403983 88.3664564,33.4703568 C88.0398174,33.6001494 87.6481162,33.6652116 87.1916846,33.6652116" id="Fill-34" fill="#FFFFFF" mask="url(#mask-2)"></path>
                <polygon id="Fill-35" fill="#FFFFFF" mask="url(#mask-2)" points="90.5501743 33.5598506 90.5501743 24.8259087 91.6459419 24.8259087 93.7845311 29.7722988 93.7845311 24.8259087 95.1015436 24.8259087 95.1015436 33.5598506 94.058556 33.5598506 91.898722 28.3605145 91.898722 33.5598506"></polygon>
                <path d="M39.7129959,44.7678672 L40.8824564,44.7678672 L40.2977261,41.1804813 L39.7129959,44.7678672 Z M37.6849461,47.8337593 L39.4602158,39.0998174 L41.1196349,39.0998174 L42.8895934,47.8337593 L41.4092614,47.8337593 L41.0563983,45.8055436 L39.5443651,45.8055436 L39.1861909,47.8337593 L37.6849461,47.8337593 Z" id="Fill-36" fill="#FFFFFF" mask="url(#mask-2)"></path>
                <polygon id="Fill-37" fill="#FFFFFF" mask="url(#mask-2)" points="43.4244149 47.8337095 43.4244149 39.0997676 44.5201826 39.0997676 46.6587718 44.0461577 46.6587718 39.0997676 47.9757842 39.0997676 47.9757842 47.8337095 46.9327967 47.8337095 44.7729627 42.6343734 44.7729627 47.8337095"></polygon>
                <path d="M50.549527,46.7169461 L51.002473,46.7169461 C51.1606473,46.7169461 51.2992365,46.7030041 51.4185726,46.6747884 C51.5380747,46.6467386 51.6381577,46.6133776 51.7189876,46.5747054 C51.7996515,46.5361992 51.8672033,46.4729627 51.9218091,46.3849959 C51.976249,46.297361 52.0174108,46.2165311 52.0456266,46.1428382 C52.0736763,46.0689793 52.0947552,45.95761 52.1088631,45.8082324 C52.122805,45.6590207 52.1314357,45.5317178 52.1350871,45.4263237 C52.1385726,45.3209295 52.1403983,45.1647469 52.1403983,44.957444 L52.1403983,41.7652448 C52.1403983,41.5581079 52.1367469,41.3913029 52.1297759,41.2648299 C52.122805,41.1383568 52.1062075,41.0112199 52.0798174,40.8829212 C52.0535934,40.7547884 52.0147552,40.6555353 51.9638008,40.5853278 C51.9130124,40.5151203 51.8454606,40.450888 51.7611452,40.3929627 C51.6768299,40.3350373 51.5714357,40.2947054 51.4451286,40.2718008 C51.3186556,40.2490622 51.1657925,40.23761 50.9867054,40.23761 L50.549527,40.23761 L50.549527,46.7169461 Z M48.9586556,47.8337925 L48.9586556,39.0996846 L50.9920166,39.0996846 C51.5188216,39.0996846 51.9594855,39.1524647 52.3141743,39.2578589 C52.6688631,39.3630871 52.9531784,39.5300581 53.1674523,39.7582739 C53.3817261,39.9864896 53.5335934,40.2666556 53.6233859,40.5984398 C53.7128465,40.93039 53.7574938,41.3385228 53.7574938,41.8231701 L53.7574938,44.9733776 C53.7574938,45.4721328 53.7118506,45.8952033 53.6205643,46.2429212 C53.529278,46.590473 53.3790705,46.8855768 53.1702739,47.1279004 C52.9611452,47.3702241 52.682971,47.5484813 52.3352531,47.6625062 C51.9875353,47.7766971 51.5609793,47.8337925 51.0552531,47.8337925 L48.9586556,47.8337925 Z" id="Fill-38" fill="#FFFFFF" mask="url(#mask-2)"></path>
                <path d="M58.5044979,42.813527 L59.0153693,42.813527 C59.4648299,42.813527 59.7687303,42.7248963 59.9267386,42.5474689 C60.0847469,42.3702075 60.163751,42.0443983 60.163751,41.5703734 C60.163751,41.3 60.1532946,41.0910373 60.1322158,40.9434855 C60.1111369,40.7959336 60.0620083,40.6616598 59.9846639,40.5404979 C59.9073195,40.4193361 59.7924647,40.3360166 59.6397676,40.2902075 C59.4869046,40.2445643 59.2805975,40.2218257 59.0206805,40.2218257 L58.5044979,40.2218257 L58.5044979,42.813527 Z M56.9136266,47.8337759 L56.9136266,39.099834 L59.4263237,39.099834 C60.9152863,39.099834 61.6598506,39.926722 61.6598506,41.5808299 C61.6598506,42.3921162 61.4560332,42.986473 61.0487303,43.3640664 C60.6414274,43.7414938 60.0671535,43.9303734 59.3262407,43.9303734 L58.5044979,43.9303734 L58.5044979,47.8337759 L56.9136266,47.8337759 Z" id="Fill-39" fill="#FFFFFF" mask="url(#mask-2)"></path>
                <path d="M63.7751701,42.8293444 L64.1595685,42.8293444 C64.6301079,42.8293444 64.9647137,42.7292614 65.1632199,42.5290954 C65.3615602,42.3289295 65.4608133,41.9865228 65.4608133,41.5018755 C65.4608133,41.0348216 65.3748382,40.7003817 65.202722,40.49839 C65.0304398,40.2963983 64.7144232,40.1954855 64.2545062,40.1954855 L63.7751701,40.1954855 L63.7751701,42.8293444 Z M62.1842988,47.8336598 L62.1842988,39.0997178 L64.1861245,39.0997178 C64.6460415,39.0997178 65.0410622,39.1375602 65.3711867,39.2130788 C65.7013112,39.2885975 65.9884481,39.4150705 66.2325975,39.592332 C66.4765809,39.7695934 66.6593195,40.0102573 66.7803154,40.3139917 C66.9016432,40.6177261 66.9620581,40.9891784 66.9620581,41.4281826 C66.9620581,41.9759004 66.8805643,42.4237012 66.7172448,42.7714191 C66.5539253,43.1191369 66.2842158,43.371917 65.9086141,43.5299253 L67.1200664,47.8336598 L65.5240498,47.8336598 L64.4810622,43.8459419 L63.7751701,43.8459419 L63.7751701,47.8336598 L62.1842988,47.8336598 Z" id="Fill-40" fill="#FFFFFF" mask="url(#mask-2)"></path>
                <path d="M69.822888,46.6906058 C69.9334274,46.736249 70.0660415,46.7591535 70.2205643,46.7591535 C70.3749212,46.7591535 70.5067054,46.736249 70.6155851,46.6906058 C70.7244647,46.6449627 70.8112697,46.5852116 70.8764979,46.5115187 C70.9412282,46.4378257 70.9923485,46.3412282 71.029195,46.2217261 C71.0660415,46.10239 71.0906058,45.9830539 71.102888,45.8635519 C71.1151701,45.7442158 71.1213112,45.6019751 71.1213112,45.4368299 L71.1213112,41.4701909 C71.1213112,41.2595685 71.1108548,41.0839668 71.0897759,40.9435519 C71.0686971,40.802971 71.0273693,40.6705228 70.9659585,40.5457095 C70.9045477,40.4212282 70.8122656,40.3281162 70.689444,40.2665394 C70.5662905,40.2051286 70.4101079,40.1744232 70.2205643,40.1744232 C70.0308548,40.1744232 69.8736763,40.2051286 69.749195,40.2665394 C69.6243817,40.3281162 69.5320996,40.4212282 69.4725145,40.5457095 C69.4127635,40.6705228 69.3724315,40.802971 69.3513527,40.9435519 C69.3302739,41.0839668 69.3198174,41.2595685 69.3198174,41.4701909 L69.3198174,45.4368299 C69.3198174,45.6019751 69.3257925,45.7442158 69.3382407,45.8635519 C69.3503568,45.9830539 69.3750871,46.10239 69.4119336,46.2217261 C69.4487801,46.3412282 69.4989046,46.4378257 69.5621411,46.5115187 C69.6253776,46.5852116 69.7121826,46.6449627 69.822888,46.6906058 M70.2205643,47.9390705 C69.3214772,47.9390705 68.6771618,47.6950871 68.2872863,47.2067884 C67.8974108,46.7186556 67.702556,46.0041328 67.702556,45.062888 L67.702556,41.8389876 C67.702556,41.3754191 67.7463734,40.9734274 67.8343402,40.6326805 C67.9219751,40.2920996 68.0633859,39.9969959 68.2582407,39.7477012 C68.4532614,39.4984066 68.7138423,39.3113527 69.0404813,39.1867054 C69.3671203,39.0620581 69.7604813,38.9996515 70.2205643,38.9996515 C71.116,38.9996515 71.7594855,39.2403154 72.1511867,39.7213112 C72.542722,40.202473 72.7384066,40.9083651 72.7384066,41.8389876 L72.7384066,45.062888 C72.7384066,45.5194855 72.6937593,45.9206473 72.6042988,46.2665394 C72.5146722,46.6124315 72.3724315,46.9126805 72.1775768,47.1674523 C71.982722,47.4220581 71.7218091,47.6142573 71.3953361,47.7442158 C71.0686971,47.8740083 70.6769959,47.9390705 70.2205643,47.9390705" id="Fill-41" fill="#FFFFFF" mask="url(#mask-2)"></path>
                <path d="M75.1699087,46.7169461 L75.6228548,46.7169461 C75.781029,46.7169461 75.9197842,46.7030041 76.0391203,46.6747884 C76.1584564,46.6467386 76.2587054,46.6133776 76.3393693,46.5747054 C76.4200332,46.5361992 76.4875851,46.4729627 76.5421909,46.3849959 C76.5966307,46.297361 76.6379585,46.2165311 76.6660083,46.1428382 C76.6940581,46.0689793 76.7151369,45.95761 76.7292448,45.8082324 C76.7431867,45.6590207 76.7519834,45.5317178 76.7556349,45.4263237 C76.7589544,45.3209295 76.7607801,45.1647469 76.7607801,44.957444 L76.7607801,41.7652448 C76.7607801,41.5581079 76.7571286,41.3913029 76.7501577,41.2648299 C76.7431867,41.1383568 76.7265892,41.0112199 76.7001992,40.8829212 C76.6739751,40.7547884 76.6351369,40.6555353 76.5841826,40.5853278 C76.5333942,40.5151203 76.4658423,40.450888 76.381527,40.3929627 C76.2972116,40.3350373 76.1918174,40.2947054 76.0655104,40.2718008 C75.9390373,40.2490622 75.7863402,40.23761 75.6072531,40.23761 L75.1699087,40.23761 L75.1699087,46.7169461 Z M73.5790373,47.8337925 L73.5790373,39.0996846 L75.6123983,39.0996846 C76.1392033,39.0996846 76.5798672,39.1524647 76.934722,39.2578589 C77.2894108,39.3630871 77.5737261,39.5300581 77.788,39.7582739 C78.0021079,39.9864896 78.1539751,40.2666556 78.2437676,40.5984398 C78.3332282,40.93039 78.3780415,41.3385228 78.3780415,41.8231701 L78.3780415,44.9733776 C78.3780415,45.4721328 78.3323983,45.8952033 78.241112,46.2429212 C78.1496598,46.590473 77.9996183,46.8855768 77.7906556,47.1279004 C77.5816929,47.3702241 77.3033527,47.5484813 76.9558008,47.6625062 C76.608083,47.7766971 76.181361,47.8337925 75.6756349,47.8337925 L73.5790373,47.8337925 Z" id="Fill-42" fill="#FFFFFF" mask="url(#mask-2)"></path>
                <path d="M81.6153859,47.9390705 C81.2255104,47.9390705 80.8874191,47.8934274 80.601444,47.8021411 C80.314971,47.7108548 80.0797842,47.582722 79.8955519,47.4175768 C79.7109876,47.2525975 79.5636017,47.0409793 79.4530622,46.782722 C79.3423568,46.5247967 79.2650124,46.2454606 79.221195,45.9452116 C79.1772116,45.6449627 79.1553029,45.2964149 79.1553029,44.8995685 L79.1553029,39.0997344 L80.6988714,39.0997344 L80.6988714,45.062888 C80.6988714,45.2665394 80.7040166,45.4404813 80.714473,45.5843817 C80.7250954,45.7284481 80.747834,45.8793195 80.7830207,46.0373278 C80.8180415,46.1955021 80.868166,46.3218091 80.9332282,46.4167469 C80.9981245,46.5115187 81.0875851,46.5905228 81.2019419,46.6537593 C81.3158008,46.7169959 81.4537261,46.7485311 81.6153859,46.7485311 C81.7768797,46.7485311 81.914805,46.7169959 82.0288299,46.6537593 C82.1430207,46.5905228 82.2308216,46.5115187 82.2922324,46.4167469 C82.3536432,46.3218091 82.4029378,46.1955021 82.4397842,46.0373278 C82.4766307,45.8793195 82.4993693,45.729278 82.508332,45.5870373 C82.5169627,45.4447967 82.521444,45.2700249 82.521444,45.062888 L82.521444,39.0997344 L84.0648465,39.0997344 L84.0648465,44.8995685 C84.0648465,45.2964149 84.0429378,45.6449627 83.9989544,45.9452116 C83.9551369,46.2454606 83.8779585,46.5247967 83.7672531,46.782722 C83.6567137,47.0409793 83.5099917,47.2525975 83.3272531,47.4175768 C83.1446805,47.582722 82.9103237,47.7108548 82.6241826,47.8021411 C82.3378755,47.8934274 82.00161,47.9390705 81.6153859,47.9390705" id="Fill-43" fill="#FFFFFF" mask="url(#mask-2)"></path>
                <path d="M87.3233859,47.9390705 C86.9474523,47.9390705 86.615668,47.8916017 86.3277012,47.7968299 C86.0397344,47.7020581 85.8017261,47.5702739 85.6138423,47.4018091 C85.4259585,47.2331784 85.2732614,47.0242158 85.1555851,46.7749212 C85.0379087,46.5256266 84.9554191,46.2579087 84.9079502,45.9716017 C84.8606473,45.6852946 84.8370788,45.3631369 84.8370788,45.0049627 L84.8370788,41.9601494 C84.8370788,41.5808963 84.8614772,41.2446307 84.9107718,40.9513527 C84.9599004,40.6582407 85.04239,40.3860415 85.1582407,40.1347552 C85.2740913,39.8838008 85.4259585,39.6774938 85.6138423,39.515834 C85.8017261,39.3543402 86.0389046,39.2280332 86.3250456,39.1365809 C86.6113527,39.0454606 86.9441328,38.9996515 87.3233859,38.9996515 C87.7587386,38.9996515 88.1310207,39.0575768 88.4402324,39.1734274 C88.749112,39.289444 88.9932614,39.4597344 89.1723485,39.6844647 C89.3514357,39.909361 89.4813942,40.1717676 89.5620581,40.4720166 C89.642888,40.7722656 89.6833859,41.122639 89.6833859,41.522971 L89.6833859,42.2710207 L88.1502739,42.2710207 L88.1502739,41.5282822 C88.1502739,41.0927635 88.1275353,40.7994855 88.0818921,40.6484481 C87.9906058,40.3535104 87.7675353,40.1955021 87.4128465,40.1744232 L87.3285311,40.1744232 C87.1952531,40.1744232 87.0782407,40.1901909 86.9783237,40.2217261 C86.8780747,40.2534274 86.7965809,40.3033859 86.7333444,40.3719336 C86.6701079,40.4403154 86.6191535,40.5133444 86.5804813,40.5905228 C86.5419751,40.6678672 86.5129295,40.7687801 86.4936763,40.8934274 C86.4744232,41.0180747 86.4621411,41.1330954 86.4566639,41.2384896 C86.4515187,41.3438838 86.4488631,41.4773278 86.4488631,41.6388216 L86.4488631,45.3367469 C86.4488631,45.84961 86.5129295,46.2147552 86.6412282,46.4325145 C86.769361,46.6502739 86.9984066,46.7591535 87.3285311,46.7591535 C87.4408963,46.7591535 87.5401494,46.7460415 87.6261245,46.7194855 C87.7122656,46.6932614 87.7841328,46.6599004 87.8422241,46.6195685 C87.9001494,46.5792365 87.949278,46.5213112 87.9897759,46.4456266 C88.0301079,46.3701079 88.0608133,46.3000664 88.0818921,46.2348382 C88.102971,46.1699419 88.1187386,46.0794855 88.129195,45.9636349 C88.1398174,45.8477842 88.1459585,45.749527 88.1477842,45.6686971 C88.14961,45.5878672 88.1502739,45.4773278 88.1502739,45.3367469 L88.1502739,44.5571618 L89.6833859,44.5571618 L89.6833859,45.2735104 C89.6833859,45.6001494 89.6604813,45.8934274 89.6148382,46.1533444 C89.569029,46.4132614 89.4910207,46.6572448 89.3804813,46.8854606 C89.2697759,47.1138423 89.1265394,47.3033859 88.9511037,47.4544232 C88.7755021,47.6054606 88.5507718,47.7239668 88.2767469,47.8101079 C88.002888,47.896083 87.6850456,47.9390705 87.3233859,47.9390705" id="Fill-44" fill="#FFFFFF" mask="url(#mask-2)"></path>
                <polygon id="Fill-45" fill="#FFFFFF" mask="url(#mask-2)" points="91.3139087 47.8337095 91.3139087 40.2745394 89.8495104 40.2745394 89.8495104 39.0997676 94.3218755 39.0997676 94.3218755 40.2745394 92.9047801 40.2745394 92.9047801 47.8337095"></polygon>
                <polygon id="Fill-46" fill="#FFFFFF" mask="url(#mask-2)" points="94.7409129 47.8336929 96.3107054 47.8336929 96.3107054 39.099751 94.7409129 39.099751"></polygon>
                <path d="M99.3084315,46.6906058 C99.418971,46.736249 99.5515851,46.7591535 99.7061079,46.7591535 C99.8606307,46.7591535 99.992249,46.736249 100.101129,46.6906058 C100.210174,46.6449627 100.296979,46.5852116 100.362041,46.5115187 C100.426938,46.4378257 100.477892,46.3412282 100.514739,46.2217261 C100.551585,46.10239 100.576149,45.9830539 100.588432,45.8635519 C100.600714,45.7442158 100.606855,45.6019751 100.606855,45.4368299 L100.606855,41.4701909 C100.606855,41.2595685 100.596398,41.0839668 100.57532,40.9435519 C100.554241,40.802971 100.512913,40.6705228 100.451502,40.5457095 C100.390091,40.4212282 100.297809,40.3281162 100.174988,40.2665394 C100.052,40.2051286 99.8958174,40.1744232 99.7061079,40.1744232 C99.5165643,40.1744232 99.3593859,40.2051286 99.2347386,40.2665394 C99.1100913,40.3281162 99.0178091,40.4212282 98.9582241,40.5457095 C98.8983071,40.6705228 98.8579751,40.802971 98.8368963,40.9435519 C98.8158174,41.0839668 98.805361,41.2595685 98.805361,41.4701909 L98.805361,45.4368299 C98.805361,45.6019751 98.8115021,45.7442158 98.8237842,45.8635519 C98.8360664,45.9830539 98.8606307,46.10239 98.8974772,46.2217261 C98.9343237,46.3412282 98.9844481,46.4378257 99.0476846,46.5115187 C99.1109212,46.5852116 99.1977261,46.6449627 99.3084315,46.6906058 M99.7061079,47.9390705 C98.8070207,47.9390705 98.1627054,47.6950871 97.7728299,47.2067884 C97.3829544,46.7186556 97.1882656,46.0041328 97.1882656,45.062888 L97.1882656,41.8389876 C97.1882656,41.3754191 97.231917,40.9734274 97.3198838,40.6326805 C97.4076846,40.2920996 97.5489295,39.9969959 97.7437842,39.7477012 C97.938805,39.4984066 98.1995519,39.3113527 98.5261909,39.1867054 C98.8528299,39.0620581 99.2460249,38.9996515 99.7061079,38.9996515 C100.60171,38.9996515 101.245195,39.2403154 101.63673,39.7213112 C102.028432,40.202473 102.224116,40.9083651 102.224116,41.8389876 L102.224116,45.062888 C102.224116,45.5194855 102.179303,45.9206473 102.089842,46.2665394 C102.000216,46.6124315 101.857975,46.9126805 101.66312,47.1674523 C101.468266,47.4220581 101.207353,47.6142573 100.88088,47.7442158 C100.554241,47.8740083 100.162539,47.9390705 99.7061079,47.9390705" id="Fill-47" fill="#FFFFFF" mask="url(#mask-2)"></path>
                <polygon id="Fill-48" fill="#FFFFFF" mask="url(#mask-2)" points="103.064598 47.8337095 103.064598 39.0997676 104.160365 39.0997676 106.298954 44.0461577 106.298954 39.0997676 107.615967 39.0997676 107.615967 47.8337095 106.572979 47.8337095 104.413145 42.6343734 104.413145 47.8337095"></polygon>
                <path d="M90.4874357,62.3394357 C85.1692614,58.1392697 78.1237842,58.0529627 75.5443651,58.6669046 L75.2446141,58.7362822 C72.2648631,59.4398506 67.5310871,60.6046639 61.9910041,67.4800166 C61.9601328,67.5178589 61.9280996,67.557361 61.898888,67.597029 L61.8286805,67.6816763 C61.7745726,67.7583568 61.7367303,67.8481494 61.7367303,67.9490622 C61.7367303,68.0325477 61.7569793,68.1083983 61.7966473,68.1792697 L61.925112,68.3912199 C62.6208797,69.5545394 63.4977261,71.0516349 64.238639,72.4313859 C64.2459419,72.4459917 64.2530788,72.4569461 64.2590539,72.4737095 C64.3380581,72.6264066 64.4957344,72.7337925 64.6814606,72.7337925 C64.8099253,72.7337925 64.925444,72.6825062 65.0087635,72.6008465 C65.0437842,72.5555353 65.078971,72.5080664 65.1096763,72.4599336 C70.0275187,65.6591037 73.8942407,64.7200166 76.5101743,64.1049129 L76.8230373,64.030888 C78.1808797,63.7050788 83.3425394,63.7246639 87.0691784,66.6667386 C89.9775602,68.9625062 91.4534108,72.6162822 91.4534108,77.5244979 C91.4534108,85.7581909 87.4492614,88.9791037 84.0877676,90.2310539 C78.8821245,92.1767801 73.8899253,89.5754523 73.8534108,89.5557012 L73.6298423,89.4468216 C70.7697593,88.2053278 66.5022075,85.6222573 62.4804647,77.544083 C54.3739087,61.2630871 47.5928299,59.7299751 43.1061909,58.7135436 L42.8665228,58.6602656 C40.8233693,58.197029 33.7280996,57.8695602 28.1513361,62.3211784 C25.2371452,64.6456598 21.7662739,69.1649959 21.7662739,77.4916349 C21.7662739,82.5649959 22.8082656,85.9145394 25.4871037,89.4386888 C26.0744896,90.2418423 32.0781411,97.9545394 43.6849461,95.7303071 C45.5423734,95.3744564 48.0590539,94.4873195 50.8270207,92.4127967 L53.3817095,94.717527 C53.5481826,94.8687303 53.8142407,94.8562822 53.9676017,94.6883154 C54.0406307,94.6101411 54.0715021,94.5100581 54.0698423,94.4113029 L54.0698423,94.3769461 L55.9128299,83.0406805 L55.9141577,82.9150373 C55.9128299,82.8046639 55.8675187,82.6921328 55.7768963,82.6131286 C55.6993859,82.5394357 55.6029544,82.510722 55.5065228,82.510722 L55.4276846,82.5181909 L55.3078506,82.530473 L44.4492614,85.5703071 L44.252083,85.6025062 C44.1730788,85.6192697 44.1000498,85.6604315 44.0446141,85.723834 C43.8864398,85.8962822 43.9012116,86.1595187 44.0751535,86.3127137 L44.2022905,86.43039 L46.6356515,88.6277344 C45.0643651,89.6449959 43.6952365,90.1117178 42.6502573,90.3142075 C34.2529129,91.9158672 30.1066888,86.4159502 29.9488465,86.2003485 L29.8904232,86.1198506 C27.9392199,83.5580249 27.2802988,81.3812614 27.2802988,77.4916349 C27.2802988,72.5686473 28.7300913,68.9135436 31.5901743,66.6293942 C35.2218755,63.7313029 40.2301743,63.7147054 41.6449461,64.0368631 L41.8887635,64.0916349 C45.5659419,64.923834 50.6034523,66.0630871 57.5422075,80.0015104 C61.1463568,87.2380249 65.6605477,91.9693112 71.3413776,94.4647469 C72.0646971,94.8335436 75.5136598,96.4690622 79.9900083,96.4690622 C81.8620415,96.4690622 83.9124979,96.1832531 86.0155685,95.4013444 C89.3081826,94.1724647 96.9676017,89.9736266 96.9676017,77.5244979 C96.9676017,69.2030041 93.4437842,64.6738755 90.4874357,62.3394357" id="Fill-49" fill="#FFFFFF" mask="url(#mask-2)"></path>
            </g>
        </g>
    </g>
</svg>