<?xml version="1.0" encoding="UTF-8"?>
<svg width="120px" height="120px" viewBox="0 0 120 120" version="1.1" xmlns="http://www.w3.org/2000/svg" xmlns:xlink="http://www.w3.org/1999/xlink">
    <!-- Generator: Sketch 56.3 (81716) - https://sketch.com -->
    <title>15</title>
    <desc>Created with Sketch.</desc>
    <defs>
        <polygon id="path-1" points="0 120 119.860581 120 119.860581 0.139419087 0 0.139419087"></polygon>
    </defs>
    <g id="15" stroke="none" stroke-width="1" fill="none" fill-rule="evenodd">
        <g id="Group-26">
            <polygon id="Fill-1" fill="#56C02B" points="0 120 120 120 120 4.46864767e-15 0 4.46864767e-15"></polygon>
            <g id="Group-25" transform="translate(0.000000, 0.026556)">
                <path d="M10.2222905,15.0792033 C10.0149876,15.1922324 9.41316183,15.427751 8.41648133,15.7845975 C7.62643983,16.048332 7.12768465,16.2267552 6.92104564,16.3206971 L6.92104564,13.0760498 C7.56021577,12.8317344 8.33614938,12.4551369 9.24884647,11.9474191 C10.1608797,11.4393693 10.805029,10.9787884 11.1816266,10.5648465 L14.5957344,10.5648465 L14.5957344,33.4194523 L10.2222905,33.4194523 L10.2222905,15.0792033 Z" id="Fill-2" fill="#FFFFFF"></path>
                <path d="M19.3639834,32.9539419 C18.4985892,32.3992531 17.9060581,31.6138589 17.58639,30.5979253 C17.2662241,29.5823237 17.106722,28.3124481 17.106722,26.7887967 L21.3390871,26.7887967 C21.3390871,28.1056432 21.4612448,29.060166 21.7058921,29.6526971 C21.9502075,30.2452282 22.4298755,30.5414938 23.1448963,30.5414938 C23.7092116,30.5414938 24.1226556,30.3537759 24.38639,29.9770124 C24.6496266,29.6010788 24.8139419,29.0883817 24.880166,28.4395851 C24.9458921,27.7906224 24.9789212,26.8550207 24.9789212,25.6319502 C24.9789212,24.240249 24.8519502,23.2009129 24.5980083,22.5141079 C24.3440664,21.8278008 23.8220747,21.4842324 23.0320332,21.4842324 C22.0162656,21.4842324 21.3673029,22.1710373 21.0851452,23.5439834 L17.3324481,23.5439834 L17.6428216,10.5647303 L28.1673029,10.5647303 L28.1673029,14.3174274 L21.2262241,14.3174274 L20.9722822,19.3680498 C21.2355187,19.0483817 21.686971,18.780332 22.326639,18.5640664 C22.9659751,18.3478008 23.6527801,18.2395851 24.38639,18.2395851 C25.9475519,18.2395851 27.1233195,18.8699585 27.913361,20.1298755 C28.7034025,21.3904564 29.0984232,23.1585892 29.0984232,25.4344398 C29.0984232,27.240249 28.9384232,28.7404979 28.6187552,29.9350207 C28.2987552,31.1297095 27.6919502,32.0699585 26.7988382,32.7565975 C25.9052282,33.4427386 24.6305394,33.786473 22.9756017,33.786473 C21.433029,33.786473 20.2288797,33.5086307 19.3639834,32.9539419" id="Fill-4" fill="#FFFFFF"></path>
                <polygon id="Fill-6" fill="#FFFFFF" points="38.2475353 19.2859585 38.2475353 10.5520166 39.8384066 10.5520166 39.8384066 18.1850456 41.9296929 18.1850456 41.9296929 19.2859585"></polygon>
                <mask id="mask-2" fill="white">
                    <use xlink:href="#path-1"></use>
                </mask>
                <g id="Clip-9"></g>
                <polygon id="Fill-8" fill="#FFFFFF" mask="url(#mask-2)" points="42.4962656 19.2859751 44.0660581 19.2859751 44.0660581 10.5520332 42.4962656 10.5520332"></polygon>
                <polygon id="Fill-10" fill="#FFFFFF" mask="url(#mask-2)" points="45.0857427 19.2859585 45.0857427 10.5520166 48.6731286 10.5520166 48.6731286 11.6530954 46.6766141 11.6530954 46.6766141 14.1921826 48.2727967 14.1921826 48.2727967 15.3140083 46.6766141 15.3140083 46.6766141 19.2859585"></polygon>
                <polygon id="Fill-11" fill="#FFFFFF" mask="url(#mask-2)" points="49.186971 19.2859585 49.186971 10.5520166 52.8427386 10.5520166 52.8427386 11.6741743 50.7778423 11.6741743 50.7778423 14.1815602 52.4108714 14.1815602 52.4108714 15.3035519 50.7778423 15.3035519 50.7778423 18.1850456 52.8691286 18.1850456 52.8691286 19.2859585"></polygon>
                <path d="M40.2256266,32.4167967 C40.336166,32.4624398 40.4687801,32.4851784 40.6233029,32.4851784 C40.7778257,32.4851784 40.909444,32.4624398 41.0183237,32.4167967 C41.1272033,32.3711535 41.2141743,32.3114025 41.2792365,32.2377095 C41.3441328,32.1640166 41.3950871,32.0674191 41.4319336,31.947917 C41.4687801,31.8285809 41.4933444,31.7090788 41.5056266,31.5897427 C41.5179087,31.4704066 41.5240498,31.328 41.5240498,31.1630207 L41.5240498,27.1963817 C41.5240498,26.9855934 41.5135934,26.8101577 41.4925145,26.6695768 C41.4714357,26.5291618 41.4301079,26.3967137 41.3686971,26.2719004 C41.3072863,26.1474191 41.2150041,26.0541411 41.0921826,25.9927303 C40.969195,25.9313195 40.8130124,25.9004481 40.6233029,25.9004481 C40.4335934,25.9004481 40.2764149,25.9313195 40.1519336,25.9927303 C40.0271203,26.0541411 39.9350041,26.1474191 39.8752531,26.2719004 C39.8155021,26.3967137 39.7751701,26.5291618 39.7540913,26.6695768 C39.7330124,26.8101577 39.722556,26.9855934 39.722556,27.1963817 L39.722556,31.1630207 C39.722556,31.328 39.7285311,31.4704066 39.7409793,31.5897427 C39.7532614,31.7090788 39.7778257,31.8285809 39.8146722,31.947917 C39.8515187,32.0674191 39.9016432,32.1640166 39.9648797,32.2377095 C40.0281162,32.3114025 40.1149212,32.3711535 40.2256266,32.4167967 M40.6233029,33.6650954 C39.7242158,33.6650954 39.0799004,33.421278 38.6900249,32.9329793 C38.3001494,32.4448465 38.1052946,31.7301577 38.1052946,30.7889129 L38.1052946,27.5651784 C38.1052946,27.10161 38.149112,26.6996183 38.2370788,26.3588714 C38.3247137,26.0181245 38.4661245,25.7231867 38.6609793,25.4738921 C38.856,25.2245975 39.1167469,25.0375436 39.4433859,24.9127303 C39.7698589,24.788249 40.1632199,24.7258423 40.6233029,24.7258423 C41.5189046,24.7258423 42.1622241,24.9663402 42.5539253,25.4475021 C42.9454606,25.9286639 43.1413112,26.634556 43.1413112,27.5651784 L43.1413112,30.7889129 C43.1413112,31.2455104 43.0964979,31.6468382 43.0070373,31.9925643 C42.9174108,32.3386224 42.7751701,32.6388714 42.5803154,32.8934772 C42.3854606,33.148083 42.1245477,33.3402822 41.7980747,33.4704066 C41.4714357,33.6001992 41.0797344,33.6650954 40.6233029,33.6650954" id="Fill-12" fill="#FFFFFF" mask="url(#mask-2)"></path>
                <polygon id="Fill-13" fill="#FFFFFF" mask="url(#mask-2)" points="43.9817759 33.5598174 43.9817759 24.8258755 45.0775436 24.8258755 47.2161328 29.7724315 47.2161328 24.8258755 48.5331452 24.8258755 48.5331452 33.5598174 47.4901577 33.5598174 45.3303237 28.3606473 45.3303237 33.5598174"></polygon>
                <polygon id="Fill-14" fill="#FFFFFF" mask="url(#mask-2)" points="51.8261245 33.5598174 51.8261245 24.8258755 53.4169959 24.8258755 53.4169959 32.4589046 55.5082822 32.4589046 55.5082822 33.5598174"></polygon>
                <path d="M57.6025892,30.4939751 L58.7720498,30.4939751 L58.1873195,26.9067552 L57.6025892,30.4939751 Z M55.5745394,33.5598672 L57.3498091,24.8259253 L59.0090622,24.8259253 L60.7790207,33.5598672 L59.2988548,33.5598672 L58.9458257,31.5318174 L57.4339585,31.5318174 L57.0757842,33.5598672 L55.5745394,33.5598672 Z" id="Fill-15" fill="#FFFFFF" mask="url(#mask-2)"></path>
                <polygon id="Fill-16" fill="#FFFFFF" mask="url(#mask-2)" points="61.3140249 33.5598174 61.3140249 24.8258755 62.4097925 24.8258755 64.5483817 29.7724315 64.5483817 24.8258755 65.8653942 24.8258755 65.8653942 33.5598174 64.8224066 33.5598174 62.6625726 28.3606473 62.6625726 33.5598174"></polygon>
                <path d="M68.4389544,32.4430539 L68.8919004,32.4430539 C69.0500747,32.4430539 69.1886639,32.429112 69.308166,32.4008963 C69.4275021,32.3728465 69.5275851,32.3394855 69.6084149,32.3009793 C69.6890788,32.2623071 69.7566307,32.1990705 69.8112365,32.1112697 C69.8656763,32.0234689 69.9068382,31.942639 69.9350539,31.8689461 C69.9631037,31.7952531 69.9841826,31.6837178 69.9982905,31.5343402 C70.0122324,31.3851286 70.021029,31.2578257 70.0245145,31.1525975 C70.028,31.0472033 70.0298257,30.8908548 70.0298257,30.6835519 L70.0298257,27.4913527 C70.0298257,27.2842158 70.0261743,27.1174108 70.0192033,26.9909378 C70.0122324,26.8646307 69.9956349,26.7373278 69.9692448,26.609029 C69.9430207,26.4808963 69.9041826,26.3816432 69.8532282,26.3114357 C69.8024398,26.2412282 69.734888,26.1769959 69.6505726,26.1190705 C69.5662573,26.0611452 69.4608631,26.0209793 69.334556,25.9979087 C69.208083,25.9751701 69.0552199,25.9637178 68.8761328,25.9637178 L68.4389544,25.9637178 L68.4389544,32.4430539 Z M66.848083,33.5599004 L66.848083,24.8257925 L68.881444,24.8257925 C69.408249,24.8257925 69.8489129,24.8785726 70.2036017,24.9839668 C70.5582905,25.089195 70.8427718,25.256166 71.0570456,25.4843817 C71.2711535,25.7125975 71.4230207,25.9927635 71.5128133,26.3245477 C71.6022739,26.6564979 71.6470871,27.0647967 71.6470871,27.549444 L71.6470871,30.6994855 C71.6470871,31.1982407 71.601278,31.6213112 71.5099917,31.969029 C71.4187054,32.3165809 71.2684979,32.6116846 71.0597012,32.8540083 C70.8507386,33.096332 70.5723983,33.2745892 70.2246805,33.3886141 C69.8771286,33.502805 69.4504066,33.5599004 68.9446805,33.5599004 L66.848083,33.5599004 Z" id="Fill-17" fill="#FFFFFF" mask="url(#mask-2)"></path>
                <path d="M49.5876515,81.2773278 C49.7345394,81.2773278 49.8528797,81.3968299 49.8528797,81.5435519 L49.8528797,90.3116846 C49.8528797,90.4605643 49.7345394,90.5782407 49.5876515,90.5782407 L46.0392697,90.5782407 C45.8917178,90.5782407 45.7727137,90.4605643 45.7727137,90.3116846 L45.7727137,81.5435519 C45.7727137,81.3968299 45.8917178,81.2773278 46.0392697,81.2773278 L49.5876515,81.2773278 Z" id="Fill-18" fill="#FFFFFF" mask="url(#mask-2)"></path>
                <path d="M88.5532282,94.3430041 L30.081195,94.3430041 C29.9351369,94.3430041 29.8136432,94.4688133 29.8136432,94.6176929 L29.8136432,98.1914689 C29.8136432,98.3368631 29.9351369,98.4547054 30.081195,98.4547054 L88.5532282,98.4547054 C88.6972946,98.4547054 88.821444,98.3368631 88.821444,98.1914689 L88.821444,94.6176929 C88.821444,94.4688133 88.6972946,94.3430041 88.5532282,94.3430041" id="Fill-19" fill="#FFFFFF" mask="url(#mask-2)"></path>
                <path d="M88.5532282,101.446224 L30.081195,101.446224 C29.9351369,101.446224 29.8136432,101.5639 29.8136432,101.709295 L29.8136432,105.294357 C29.8136432,105.437427 29.9351369,105.557925 30.081195,105.557925 L88.5532282,105.557925 C88.6972946,105.557925 88.821444,105.437427 88.821444,105.294357 L88.821444,101.709295 C88.821444,101.5639 88.6972946,101.446224 88.5532282,101.446224" id="Fill-20" fill="#FFFFFF" mask="url(#mask-2)"></path>
                <path d="M77.4266556,71.5715187 C76.6958672,71.0002324 74.7463237,69.6659585 72.3685643,69.6659585 C70.6689793,69.6659585 69.0875685,70.335668 67.6729627,71.6611452 C67.5728797,71.756083 67.5166141,71.8875353 67.5166141,72.0279502 L67.5166141,72.3464564 C67.5166141,72.5033029 67.5683983,72.6498589 67.6830871,72.7462905 C67.81039,72.8422241 67.9433361,72.8785726 68.0953693,72.8422241 C68.1288963,72.8375768 68.170556,72.8269544 68.2049129,72.8141743 C68.3131286,72.7764979 68.4147054,72.7114357 68.497361,72.6289461 C68.804083,72.422971 69.6414274,72.1416432 70.8392697,72.1416432 C72.0777759,72.1416432 74.5118008,72.4732614 76.864,74.6664564 L76.9181079,74.7147552 C77.0502241,74.8511867 77.2329627,74.9263734 77.4266556,74.9263734 C77.610722,74.9263734 77.8014274,74.849527 77.9212614,74.7195685 L77.9688963,74.6706058 C80.3342075,72.4732614 82.763751,72.1416432 84.0024232,72.1416432 C85.2087303,72.1416432 86.0425892,72.422971 86.3501411,72.6289461 C86.4342905,72.7114357 86.537195,72.7781577 86.6731286,72.8269544 C86.7249129,72.8422241 86.8741245,72.8725975 87.0157012,72.8375768 C87.2321328,72.7764979 87.384166,72.5818091 87.384166,72.355751 L87.384166,72.0734274 C87.384166,71.9399834 87.3264066,71.8050456 87.2269876,71.7119336 C85.7991037,70.3509378 84.2012614,69.662971 82.4744564,69.662971 C80.1186058,69.662971 78.1778589,70.9764979 77.4266556,71.5715187" id="Fill-21" fill="#FFFFFF" mask="url(#mask-2)"></path>
                <path d="M73.7979751,48.2670871 C73.6736598,48.3248465 73.5837012,48.4383734 73.5427054,48.5751369 L73.4836183,48.7701577 C73.4398008,48.9236846 73.4676846,49.0856763 73.5604647,49.2094938 C73.6510871,49.328166 73.7797178,49.3997012 73.9221245,49.4063402 C73.9491784,49.4096598 73.9755685,49.4162988 73.9951535,49.4096598 C74.0967303,49.4063402 74.1880166,49.3844315 74.2781411,49.3371286 C74.3297593,49.3266722 74.4379751,49.2977925 74.632332,49.2977925 C74.8940747,49.2977925 77.2512531,49.3769627 78.8097593,52.0262573 L78.8295104,52.0639336 C78.9144896,52.2172946 79.0466058,52.3230207 79.2037842,52.3635187 C79.2489295,52.3782905 79.3360664,52.3922324 79.3900083,52.3922324 C79.4982241,52.3922324 79.6071037,52.3635187 79.6846141,52.3193693 L79.7232863,52.3007801 C80.5760664,51.8742241 81.4595519,51.6554689 82.331917,51.6554689 C83.8087635,51.6554689 84.7732448,52.2579585 84.9983071,52.5089129 C85.0444481,52.5940581 85.1146556,52.668249 85.1941577,52.7270041 C85.2437842,52.7557178 85.3314191,52.7998672 85.3841992,52.8184564 C85.4104232,52.8250954 85.4411286,52.8285809 85.4703402,52.8307386 C85.4864398,52.8342241 85.505527,52.8342241 85.5231203,52.8342241 C85.6026224,52.8342241 85.6793029,52.8143071 85.7546556,52.7759668 C85.8744896,52.7158838 85.9642822,52.6065062 86.0031203,52.4763817 L86.052083,52.3039336 C86.0666888,52.2601162 86.0724979,52.2123154 86.0724979,52.1618589 C86.0724979,52.0705726 86.0490954,51.9821079 86.0044481,51.9109046 C84.8690124,49.9389544 83.2212116,49.5268382 82.0381411,49.5268382 C81.1576432,49.5268382 80.3875187,49.7552199 79.9337427,49.9218589 C79.3981411,49.201361 78.0441162,47.7120664 75.9901743,47.7120664 C75.2680166,47.7120664 74.532249,47.8976266 73.7979751,48.2670871" id="Fill-22" fill="#FFFFFF" mask="url(#mask-2)"></path>
                <path d="M61.4429544,57.262971 L61.4597178,57.5260415 C61.4676846,57.6903568 61.5538257,57.8325975 61.6934108,57.9199004 C61.8089295,57.9925975 61.9566473,58.0178257 62.0866058,57.9793195 C62.1151535,57.9728465 62.1473527,57.9622241 62.172249,57.9527635 C62.2729959,57.9114357 62.358473,57.8473693 62.425029,57.7660415 C62.6734938,57.5867884 63.4741577,57.2596515 64.6552365,57.2596515 C65.7906722,57.2596515 67.5181411,57.5630539 69.278473,59.0088631 L69.3193029,59.0506888 C69.4449461,59.1592365 69.6057759,59.2206473 69.7702573,59.2206473 L69.8132448,59.2206473 C69.9974772,59.2063734 70.1677676,59.1215602 70.272166,58.9999004 L70.311668,58.9555851 C72.2605477,56.8931784 74.3598008,56.5867884 75.4376432,56.5867884 C76.205444,56.5867884 76.7500083,56.7452946 76.9617925,56.8652946 C77.0422905,56.9345062 77.1415436,56.989444 77.2658589,57.022971 C77.3008797,57.0312697 77.3871867,57.0467054 77.4799668,57.0369129 C77.5179751,57.0327635 77.565444,57.0196515 77.6026224,57.0077012 C77.811751,56.9345062 77.9490124,56.7306888 77.9344066,56.5049627 L77.9212946,56.276249 C77.9124979,56.1398174 77.8490954,56.0174938 77.745195,55.9283651 C76.5818755,54.9497759 75.3264398,54.4566639 74.005444,54.4566639 C71.9485145,54.4566639 70.3078506,55.6711037 69.6283485,56.2666224 C69.0064398,55.8432199 67.4975602,54.9718506 65.7271037,54.9718506 C64.1712531,54.9718506 62.7763983,55.6181577 61.578722,56.8888631 C61.4844481,56.989444 61.4369793,57.1260415 61.4429544,57.262971" id="Fill-23" fill="#FFFFFF" mask="url(#mask-2)"></path>
                <path d="M31.853112,61.957112 C31.853112,58.4555353 34.6921162,55.6181909 38.1920332,55.6181909 C38.3294606,55.6181909 38.4632365,55.6303071 38.5985062,55.6377759 C38.9324481,51.2067386 42.6247303,47.7121328 47.1419087,47.7121328 C51.8793361,47.7121328 55.719834,51.5518008 55.719834,56.2890622 C55.719834,57.630971 55.4019917,58.8955353 54.8526141,60.0266556 C59.1455602,60.9776929 62.3585062,64.8004315 62.3585062,69.377527 C62.3585062,74.670971 58.066888,78.9624232 52.77361,78.9624232 C52.3870539,78.9624232 39.9824066,78.8879004 39.9824066,78.8879004 C36.233029,78.8872365 33.1946888,75.8502241 33.1946888,72.1013444 C33.1946888,70.3006805 33.9005809,68.6698091 35.0449793,67.4547054 C33.139917,66.3612614 31.853112,64.3119668 31.853112,61.957112" id="Fill-24" fill="#FFFFFF" mask="url(#mask-2)"></path>
            </g>
        </g>
    </g>
</svg>