<?xml version="1.0" encoding="UTF-8"?>
<svg width="120px" height="120px" viewBox="0 0 120 120" version="1.1" xmlns="http://www.w3.org/2000/svg" xmlns:xlink="http://www.w3.org/1999/xlink">
    <!-- Generator: Sketch 56.3 (81716) - https://sketch.com -->
    <title>14</title>
    <desc>Created with Sketch.</desc>
    <defs>
        <polygon id="path-1" points="0 120 119.860581 120 119.860581 0.139419087 0 0.139419087"></polygon>
    </defs>
    <g id="14" stroke="none" stroke-width="1" fill="none" fill-rule="evenodd">
        <g id="Group-26">
            <polygon id="Fill-1" fill="#0A97D9" points="0 120 120 120 120 4.46864767e-15 0 4.46864767e-15"></polygon>
            <g id="Group-25" transform="translate(0.000000, 0.026556)">
                <path d="M10.2789046,15.0792033 C10.0716017,15.1922324 9.46977593,15.427751 8.47309544,15.7845975 C7.68305394,16.048332 7.18429876,16.2267552 6.97765975,16.3206971 L6.97765975,13.0760498 C7.61682988,12.8317344 8.39276349,12.4551369 9.30546058,11.9474191 C10.2174938,11.4393693 10.8616432,10.9787884 11.2382407,10.5648465 L14.6523485,10.5648465 L14.6523485,33.4194523 L10.2789046,33.4194523 L10.2789046,15.0792033 Z" id="Fill-2" fill="#FFFFFF"></path>
                <path d="M23.4554357,24.7008963 L23.4554357,14.9946722 L19.9848963,24.7008963 L23.4554357,24.7008963 Z M23.4554357,28.0021411 L16.5707884,28.0021411 L16.5707884,24.5598174 L22.5243154,10.5647967 L27.4056432,10.5647967 L27.4056432,24.7008963 L29.6911203,24.7008963 L29.6911203,28.0021411 L27.4056432,28.0021411 L27.4056432,33.4194025 L23.4554357,33.4194025 L23.4554357,28.0021411 Z" id="Fill-4" fill="#FFFFFF"></path>
                <polygon id="Fill-6" fill="#FFFFFF" points="38.3040498 19.2859585 38.3040498 10.5520166 39.8949212 10.5520166 39.8949212 18.1850456 41.9862075 18.1850456 41.9862075 19.2859585"></polygon>
                <mask id="mask-2" fill="white">
                    <use xlink:href="#path-1"></use>
                </mask>
                <g id="Clip-9"></g>
                <polygon id="Fill-8" fill="#FFFFFF" mask="url(#mask-2)" points="42.5528631 19.2859751 44.1226556 19.2859751 44.1226556 10.5520332 42.5528631 10.5520332"></polygon>
                <polygon id="Fill-10" fill="#FFFFFF" mask="url(#mask-2)" points="45.1422573 19.2859585 45.1422573 10.5520166 48.7296432 10.5520166 48.7296432 11.6530954 46.7331286 11.6530954 46.7331286 14.1921826 48.3293112 14.1921826 48.3293112 15.3140083 46.7331286 15.3140083 46.7331286 19.2859585"></polygon>
                <polygon id="Fill-11" fill="#FFFFFF" mask="url(#mask-2)" points="49.2435021 19.2859585 49.2435021 10.5520166 52.8992697 10.5520166 52.8992697 11.6741743 50.8343734 11.6741743 50.8343734 14.1815602 52.4674025 14.1815602 52.4674025 15.3035519 50.8343734 15.3035519 50.8343734 18.1850456 52.9256598 18.1850456 52.9256598 19.2859585"></polygon>
                <path d="M39.8949212,32.4378589 L40.4796515,32.4378589 C40.9536763,32.4378589 41.2819751,32.3271535 41.4647137,32.1059087 C41.6472863,31.8846639 41.7385726,31.5195187 41.7385726,31.0101411 C41.7385726,30.4835021 41.635834,30.1015934 41.4305228,29.8644149 C41.2250456,29.6274025 40.8799834,29.5090622 40.3953361,29.5090622 L39.8949212,29.5090622 L39.8949212,32.4378589 Z M39.8949212,28.3869046 L40.3900249,28.3869046 C40.8570788,28.3869046 41.1784066,28.2868216 41.3541743,28.0866556 C41.52961,27.8864896 41.6174108,27.5493942 41.6174108,27.0752033 C41.6174108,26.8293942 41.5885311,26.6300581 41.5304398,26.477361 C41.4726805,26.3244979 41.3750871,26.2096432 41.2381577,26.1322988 C41.1012282,26.0551203 40.949361,26.004166 40.782556,25.9796017 C40.615751,25.9548714 40.3935104,25.9425892 40.116166,25.9425892 L39.8949212,25.9425892 L39.8949212,28.3869046 Z M38.3040498,33.5598506 L38.3040498,24.8259087 L40.442805,24.8259087 C40.8466224,24.8259087 41.1986556,24.8619253 41.4989046,24.9337925 C41.7993195,25.0059917 42.0660415,25.1253278 42.2995685,25.2919668 C42.5330954,25.4589378 42.709527,25.6898091 42.829029,25.9847469 C42.9483651,26.2796846 43.0064564,26.6363651 43.002971,27.0541245 C42.9993195,28.1324647 42.5709378,28.7346224 41.7174938,28.8609295 C42.2338423,28.9593527 42.6192365,29.1849129 42.8738423,29.5377759 C43.1284481,29.890805 43.2574108,30.3870705 43.2611055,31.0260747 C43.2645477,31.8547884 43.0572448,32.484332 42.6394855,32.9145394 C42.2215602,33.3447469 41.6122656,33.5598506 40.8114357,33.5598506 L38.3040498,33.5598506 Z" id="Fill-12" fill="#FFFFFF" mask="url(#mask-2)"></path>
                <polygon id="Fill-13" fill="#FFFFFF" mask="url(#mask-2)" points="43.9698257 33.5598174 43.9698257 24.8258755 47.6255934 24.8258755 47.6255934 25.9480332 45.5606971 25.9480332 45.5606971 28.4554191 47.1937261 28.4554191 47.1937261 29.5774108 45.5606971 29.5774108 45.5606971 32.4589046 47.6519834 32.4589046 47.6519834 33.5598174"></polygon>
                <polygon id="Fill-14" fill="#FFFFFF" mask="url(#mask-2)" points="48.2449793 33.5598174 48.2449793 24.8258755 49.8358506 24.8258755 49.8358506 32.4589046 51.9271369 32.4589046 51.9271369 33.5598174"></polygon>
                <path d="M54.3295602,32.4167967 C54.4400996,32.4624398 54.5727137,32.4851784 54.7272365,32.4851784 C54.8817593,32.4851784 55.0133776,32.4624398 55.1222573,32.4167967 C55.2311369,32.3711535 55.3181079,32.3114025 55.3831701,32.2377095 C55.4480664,32.1640166 55.4990207,32.0674191 55.5358672,31.947917 C55.5727137,31.8285809 55.597278,31.7090788 55.6095602,31.5897427 C55.6218423,31.4704066 55.6279834,31.328 55.6279834,31.1630207 L55.6279834,27.1963817 C55.6279834,26.9855934 55.617527,26.8101577 55.5964481,26.6695768 C55.5753693,26.5291618 55.5340415,26.3967137 55.4726307,26.2719004 C55.4112199,26.1474191 55.3189378,26.0541411 55.1961162,25.9927303 C55.0731286,25.9313195 54.9169461,25.9004481 54.7272365,25.9004481 C54.537527,25.9004481 54.3803485,25.9313195 54.2558672,25.9927303 C54.1310539,26.0541411 54.0389378,26.1474191 53.9791867,26.2719004 C53.9194357,26.3967137 53.8791037,26.5291618 53.8580249,26.6695768 C53.8369461,26.8101577 53.8264896,26.9855934 53.8264896,27.1963817 L53.8264896,31.1630207 C53.8264896,31.328 53.8324647,31.4704066 53.8449129,31.5897427 C53.857195,31.7090788 53.8817593,31.8285809 53.9186058,31.947917 C53.9554523,32.0674191 54.0055768,32.1640166 54.0688133,32.2377095 C54.1320498,32.3114025 54.2188548,32.3711535 54.3295602,32.4167967 M54.7272365,33.6650954 C53.8281494,33.6650954 53.183834,33.421278 52.7939585,32.9329793 C52.404083,32.4448465 52.2092282,31.7301577 52.2092282,30.7889129 L52.2092282,27.5651784 C52.2092282,27.10161 52.2530456,26.6996183 52.3410124,26.3588714 C52.4286473,26.0181245 52.5700581,25.7231867 52.7649129,25.4738921 C52.9599336,25.2245975 53.2206805,25.0375436 53.5473195,24.9127303 C53.8737925,24.788249 54.2671535,24.7258423 54.7272365,24.7258423 C55.6228382,24.7258423 56.2661577,24.9663402 56.6578589,25.4475021 C57.0493942,25.9286639 57.2452448,26.634556 57.2452448,27.5651784 L57.2452448,30.7889129 C57.2452448,31.2455104 57.2004315,31.6468382 57.110971,31.9925643 C57.0213444,32.3386224 56.8791037,32.6388714 56.684249,32.8934772 C56.4893942,33.148083 56.2284813,33.3402822 55.9020083,33.4704066 C55.5753693,33.6001992 55.183668,33.6650954 54.7272365,33.6650954" id="Fill-15" fill="#FFFFFF" mask="url(#mask-2)"></path>
                <polygon id="Fill-16" fill="#FFFFFF" mask="url(#mask-2)" points="59.0340083 33.5598174 57.7855436 24.8258755 59.1236349 24.8258755 59.8399834 30.4572448 60.7724315 24.8258755 61.8418091 24.8258755 62.7951701 30.46239 63.5116846 24.8258755 64.8232199 24.8258755 63.5747552 33.5598174 62.3052116 33.5598174 61.3201494 27.7284481 60.3403983 33.5598174"></polygon>
                <polygon id="Fill-17" fill="#FFFFFF" mask="url(#mask-2)" points="68.7641328 33.5598174 67.515668 24.8258755 68.8537593 24.8258755 69.5701079 30.4572448 70.502556 24.8258755 71.5719336 24.8258755 72.5252946 30.46239 73.2418091 24.8258755 74.5533444 24.8258755 73.3048797 33.5598174 72.0353361 33.5598174 71.0502739 27.7284481 70.0705228 33.5598174"></polygon>
                <path d="M76.5370788,30.4939751 L77.7065394,30.4939751 L77.1218091,26.9067552 L76.5370788,30.4939751 Z M74.509029,33.5598672 L76.2842988,24.8259253 L77.9435519,24.8259253 L79.7135104,33.5598672 L78.2333444,33.5598672 L77.8803154,31.5318174 L76.3684481,31.5318174 L76.0102739,33.5598672 L74.509029,33.5598672 Z" id="Fill-18" fill="#FFFFFF" mask="url(#mask-2)"></path>
                <polygon id="Fill-19" fill="#FFFFFF" mask="url(#mask-2)" points="80.7963485 33.5598174 80.7963485 26.0006473 79.3319502 26.0006473 79.3319502 24.8258755 83.8043154 24.8258755 83.8043154 26.0006473 82.3872199 26.0006473 82.3872199 33.5598174"></polygon>
                <polygon id="Fill-20" fill="#FFFFFF" mask="url(#mask-2)" points="84.1759834 33.5598174 84.1759834 24.8258755 87.831751 24.8258755 87.831751 25.9480332 85.7668548 25.9480332 85.7668548 28.4554191 87.3998838 28.4554191 87.3998838 29.5774108 85.7668548 29.5774108 85.7668548 32.4589046 87.8581411 32.4589046 87.8581411 33.5598174"></polygon>
                <path d="M90.0419253,28.5554357 L90.4264896,28.5554357 C90.897029,28.5554357 91.2314689,28.4553527 91.4299751,28.2551867 C91.6283154,28.0550207 91.7275685,27.7126141 91.7275685,27.2279668 C91.7275685,26.7609129 91.6415934,26.426473 91.4694772,26.2244813 C91.297361,26.0224896 90.9813444,25.9215768 90.5212614,25.9215768 L90.0419253,25.9215768 L90.0419253,28.5554357 Z M88.4510539,33.559751 L88.4510539,24.8258091 L90.4528797,24.8258091 C90.9127967,24.8258091 91.3078174,24.8636515 91.6381079,24.9391701 C91.9680664,25.0146888 92.2552033,25.1411618 92.4993527,25.3184232 C92.7433361,25.4956846 92.9260747,25.7365145 93.0470705,26.040083 C93.1683983,26.3439834 93.2289793,26.7152697 93.2289793,27.1542739 C93.2289793,27.7019917 93.1473195,28.1499585 92.984,28.4975104 C92.8206805,28.8452282 92.5511369,29.0981743 92.1753693,29.2561826 L93.3869876,33.559751 L91.790805,33.559751 L90.7478174,29.5721992 L90.0419253,29.5721992 L90.0419253,33.559751 L88.4510539,33.559751 Z" id="Fill-21" fill="#FFFFFF" mask="url(#mask-2)"></path>
                <path d="M74.7784564,89.5866224 C72.5658423,89.5866224 70.7726473,87.7909378 70.7726473,85.5794855 C70.7726473,83.3678672 72.5658423,81.5769959 74.7784564,81.5769959 C76.9962158,81.5769959 78.7887469,83.3678672 78.7887469,85.5794855 C78.7887469,87.7909378 76.9962158,89.5866224 74.7784564,89.5866224 M92.1754689,87.7197344 C90.6597842,85.6722656 80.8712365,73.1924315 67.1475851,73.1924315 C55.2302407,73.1924315 42.481361,84.0015602 42.481361,84.0015602 C42.481361,84.0015602 37.6923154,74.1995685 27.8962988,73.2578257 C27.8385394,73.2578257 27.7771286,73.2448797 27.7120664,73.2448797 L27.6514855,73.2448797 C27.4470041,73.256166 27.2554689,73.4550041 27.2773776,73.6325975 C27.3050954,73.8042158 27.4309046,73.9909378 27.4309046,73.9909378 C28.6934772,76.0873693 31.9158838,82.0515187 31.9158838,88.0098589 C31.9158838,93.9876183 28.674556,99.9677012 27.4236017,102.054008 L27.3387884,102.186954 C27.3022739,102.249693 27.2773776,102.312598 27.2773776,102.393759 C27.2773776,102.600398 27.4380415,102.761228 27.6390373,102.779485 L27.7450954,102.770855 C27.7779585,102.770855 27.8129793,102.770855 27.848,102.761228 C37.674722,101.845544 42.481361,92.0138423 42.481361,92.0138423 C42.481361,92.0138423 55.2302407,102.823967 67.1475851,102.823967 C80.8712365,102.823967 90.6597842,90.3434689 92.1754689,88.3006473 C92.2171286,88.2448797 92.2508216,88.1964149 92.2806971,88.1599004 C92.2982905,88.1119336 92.3127303,88.0672863 92.3127303,88.0098589 C92.3127303,87.956083 92.2982905,87.9021411 92.2806971,87.8604813 C92.2508216,87.8188216 92.2171286,87.7710207 92.1754689,87.7197344" id="Fill-22" fill="#FFFFFF" mask="url(#mask-2)"></path>
                <path d="M41.5819087,62.0057427 C41.613278,61.9610954 41.6426556,61.9282324 41.686473,61.897361 C41.7508714,61.857029 41.8224066,61.8233361 41.9027386,61.8233361 C42.0049793,61.8233361 42.1022407,61.8649959 42.1709544,61.9330456 C42.1746058,61.9396846 42.1825726,61.9451618 42.1883817,61.9498091 C49.6697095,69.0815934 57.5181743,63.3008465 59.1513693,61.9498091 L59.3113693,61.797112 C59.3573444,61.7788548 59.406971,61.7723817 59.459751,61.7723817 C59.5166805,61.7723817 59.5706224,61.7788548 59.6175934,61.797112 L59.7775934,61.9498091 C61.4091286,63.3008465 69.2549378,69.0815934 76.7389212,61.9498091 C76.7405809,61.9451618 76.7470539,61.9396846 76.753029,61.9330456 C76.8230705,61.8649959 76.9143568,61.8233361 77.0180913,61.8233361 C77.1007469,61.8233361 77.1751037,61.857029 77.2351867,61.897361 C77.2819917,61.9282324 77.3125311,61.9610954 77.3462241,62.0057427 C78.7960166,63.4324647 85.0619087,68.8278174 91.693112,63.0661577 C91.7626556,62.9954523 91.8094606,62.9030041 91.8094606,62.7894772 L91.8094606,60.050722 C91.8094606,59.8324647 91.6340249,59.6586888 91.4184232,59.6586888 C91.3898755,59.6586888 91.3636515,59.6696432 91.33361,59.6751203 C91.2721992,59.7048299 91.2079668,59.7391867 91.1347718,59.7745394 C89.0992531,60.7961162 82.7769295,63.2176929 77.0421577,57.7977759 C76.9888797,57.7466556 76.9326141,57.6955353 76.8763485,57.6404315 C76.8230705,57.610888 76.7726141,57.6012614 76.7083817,57.6012614 C76.6680498,57.6012614 76.6257261,57.610888 76.5898755,57.630971 C76.5037344,57.6523817 76.4365145,57.7069876 76.3905394,57.7776929 C74.6819917,59.0791037 66.8341909,64.3929627 59.8454772,57.8737925 L59.7432365,57.7715519 C59.6708714,57.7016763 59.5706224,57.6620083 59.459751,57.6620083 C59.3573444,57.6620083 59.2549378,57.7016763 59.18639,57.7715519 L59.0783402,57.8737925 C52.0941079,64.3929627 44.2388382,59.0791037 42.5319502,57.7776929 C42.4873029,57.7069876 42.4209129,57.6523817 42.3382573,57.630971 C42.2979253,57.610888 42.2557676,57.6012614 42.2126141,57.6012614 C42.1561826,57.6012614 42.1022407,57.610888 42.0496266,57.6404315 C41.9955187,57.6955353 41.9379253,57.7466556 41.8793361,57.7977759 C36.1439004,63.2176929 29.8275519,60.7961162 27.7888797,59.7745394 C27.7173444,59.7391867 27.6501245,59.7048299 27.5878838,59.6751203 C27.5571784,59.6696432 27.5374274,59.6586888 27.5125311,59.6586888 C27.2949378,59.6586888 27.1180083,59.8324647 27.1180083,60.050722 L27.1180083,62.7894772 C27.1180083,62.9030041 27.1611618,62.9954523 27.2320332,63.0661577 C33.8574274,68.8278174 40.1306224,63.4324647 41.5819087,62.0057427" id="Fill-23" fill="#FFFFFF" mask="url(#mask-2)"></path>
                <path d="M27.5872365,49.7344398 C27.557195,49.7278008 27.5367801,49.7175104 27.5118838,49.7175104 C27.2949544,49.7175104 27.1180249,49.8947718 27.1180249,50.1155187 L27.1180249,52.846805 C27.1180249,52.9613278 27.1611784,53.0617427 27.2327137,53.1297925 C33.857444,58.8859751 40.1299751,53.4926141 41.5819253,52.0673859 C41.6119668,52.0240664 41.6426722,51.9825726 41.6858257,51.9561826 C41.750722,51.9146888 41.8215934,51.8849793 41.9025892,51.8849793 C42.0049959,51.8849793 42.1014274,51.9243154 42.1693112,51.9905394 C42.1746224,51.9978423 42.1825892,52.0039834 42.1883983,52.0073029 C49.6717178,59.1490456 57.5180249,53.3644813 59.150722,52.0073029 L59.3113859,51.8604149 C59.357361,51.8390041 59.4069876,51.8308714 59.4604315,51.8308714 C59.5160332,51.8308714 59.5714689,51.8390041 59.6161162,51.8604149 L59.77761,52.0073029 C61.4091452,53.3644813 69.2557842,59.1490456 76.7382739,52.0073029 C76.7397676,52.0039834 76.7492282,51.9978423 76.7530456,51.9905394 C76.8230871,51.9243154 76.9152033,51.8849793 77.0189378,51.8849793 C77.0999336,51.8849793 77.1751203,51.9146888 77.2358672,51.9561826 C77.2811784,51.9825726 77.3125477,52.0240664 77.3462407,52.0673859 C78.7966971,53.4926141 85.0625892,58.8859751 91.6931286,53.1297925 C91.7618423,53.0617427 91.8071535,52.9613278 91.8071535,52.846805 L91.8071535,50.1155187 C91.8071535,49.8947718 91.6353693,49.7175104 91.4184398,49.7175104 C91.3898921,49.7175104 91.3635021,49.7278008 91.3336266,49.7344398 C91.2722158,49.7694606 91.2086473,49.8023237 91.1347884,49.8373444 C89.09761,50.8582573 82.7782739,53.2856432 77.0421743,47.8585892 C76.9882324,47.8082988 76.9319668,47.7578423 76.8755353,47.6992531 C76.8230871,47.6776763 76.7726307,47.6634025 76.7083983,47.6634025 C76.6680664,47.6634025 76.6250788,47.6748548 76.5898921,47.6818257 C76.5044149,47.7161826 76.4365311,47.7706224 76.390556,47.8366805 C74.6805145,49.139917 66.8340415,54.4519502 59.8463237,47.933444 L59.743917,47.8338589 C59.670888,47.7691286 59.5714689,47.7161826 59.4604315,47.7161826 C59.357361,47.7161826 59.2549544,47.7691286 59.1870705,47.8338589 L59.0781909,47.933444 C52.0941245,54.4519502 44.2388548,49.139917 42.5318008,47.8366805 C42.4871535,47.7706224 42.4214274,47.7161826 42.33761,47.6818257 C42.297112,47.6748548 42.257112,47.6634025 42.2126307,47.6634025 C42.1568631,47.6634025 42.1014274,47.6776763 42.0481494,47.6992531 C41.997029,47.7578423 41.9362822,47.8082988 41.8800166,47.8585892 C36.1447469,53.2856432 29.8275685,50.8582573 27.7888963,49.8373444 C27.717361,49.8023237 27.6493112,49.7694606 27.5872365,49.7344398" id="Fill-24" fill="#FFFFFF" mask="url(#mask-2)"></path>
            </g>
        </g>
    </g>
</svg>