<?xml version="1.0" encoding="UTF-8"?>
<svg width="120px" height="120px" viewBox="0 0 120 120" version="1.1" xmlns="http://www.w3.org/2000/svg" xmlns:xlink="http://www.w3.org/1999/xlink">
    <!-- Generator: Sketch 56.3 (81716) - https://sketch.com -->
    <title>7</title>
    <desc>Created with Sketch.</desc>
    <g id="7" stroke="none" stroke-width="1" fill="none" fill-rule="evenodd">
        <g id="Group-75">
            <polygon id="Fill-1" fill="#FCC30B" points="0 120 120 120 120 0 0 0"></polygon>
            <polygon id="Fill-2" fill="#FFFFFF" points="16.0431701 13.7548216 9.83570124 13.7548216 9.83570124 10.425361 20.303751 10.425361 20.303751 13.2751535 15.4788548 33.2801328 11.2464896 33.2801328"></polygon>
            <path d="M31.6178423,16.0807303 L32.7873029,16.0807303 L32.2025726,12.4933444 L31.6178423,16.0807303 Z M29.5897925,19.1466224 L31.3650622,10.4126805 L33.0243154,10.4126805 L34.7942739,19.1466224 L33.3141079,19.1466224 L32.9610788,17.1184066 L31.4492116,17.1184066 L31.0910373,19.1466224 L29.5897925,19.1466224 Z" id="Fill-3" fill="#FFFFFF"></path>
            <polygon id="Fill-4" fill="#FFFFFF" points="35.4372116 19.1465726 35.4372116 10.4126307 39.0245975 10.4126307 39.0245975 11.5135436 37.028083 11.5135436 37.028083 14.0526307 38.6242656 14.0526307 38.6242656 15.1746224 37.028083 15.1746224 37.028083 19.1465726"></polygon>
            <polygon id="Fill-5" fill="#FFFFFF" points="39.6463237 19.1465726 39.6463237 10.4126307 43.2337095 10.4126307 43.2337095 11.5135436 41.237195 11.5135436 41.237195 14.0526307 42.8333776 14.0526307 42.8333776 15.1746224 41.237195 15.1746224 41.237195 19.1465726"></polygon>
            <g id="Group-74" transform="translate(29.211618, 10.151037)" fill="#FFFFFF">
                <path d="M16.6219751,7.85243154 C16.7325145,7.89807469 16.8651286,7.92097925 17.0196515,7.92097925 C17.1741743,7.92097925 17.3057925,7.89807469 17.4146722,7.85243154 C17.5235519,7.80678838 17.6105228,7.74703734 17.6755851,7.6733444 C17.7404813,7.59965145 17.7914357,7.50305394 17.8282822,7.38355187 C17.8651286,7.26421577 17.8896929,7.14487967 17.9019751,7.02537759 C17.9142573,6.90604149 17.9203983,6.76380083 17.9203983,6.5986556 L17.9203983,2.6320166 C17.9203983,2.42139419 17.9099419,2.24579253 17.8888631,2.10537759 C17.8677842,1.96479668 17.8264564,1.83234855 17.7650456,1.70753527 C17.7036349,1.58305394 17.6113527,1.48994191 17.4885311,1.42836515 C17.3655436,1.36695436 17.209361,1.33624896 17.0196515,1.33624896 C16.8299419,1.33624896 16.6727635,1.36695436 16.5482822,1.42836515 C16.4234689,1.48994191 16.3313527,1.58305394 16.2716017,1.70753527 C16.2118506,1.83234855 16.1715187,1.96479668 16.1504398,2.10537759 C16.129361,2.24579253 16.1189046,2.42139419 16.1189046,2.6320166 L16.1189046,6.5986556 C16.1189046,6.76380083 16.1248797,6.90604149 16.1373278,7.02537759 C16.14961,7.14487967 16.1741743,7.26421577 16.2110207,7.38355187 C16.2478672,7.50305394 16.2979917,7.59965145 16.3612282,7.6733444 C16.4244647,7.74703734 16.5112697,7.80678838 16.6219751,7.85243154 M17.0196515,9.10089627 C16.1205643,9.10089627 15.476249,8.85691286 15.0863734,8.36861411 C14.6964979,7.88048133 14.5016432,7.16595851 14.5016432,6.22471369 L14.5016432,3.00081328 C14.5016432,2.53724481 14.5454606,2.13525311 14.6334274,1.79450622 C14.7210622,1.45392531 14.862473,1.15882158 15.0573278,0.909526971 C15.2523485,0.660232365 15.5130954,0.473178423 15.8397344,0.34853112 C16.1662075,0.223883817 16.5595685,0.161477178 17.0196515,0.161477178 C17.9152531,0.161477178 18.5585726,0.402141079 18.9502739,0.883136929 C19.3418091,1.36429876 19.5376598,2.07019087 19.5376598,3.00081328 L19.5376598,6.22471369 C19.5376598,6.6813112 19.4928465,7.08247303 19.4033859,7.42836515 C19.3137593,7.77425726 19.1715187,8.07450622 18.9766639,8.32927801 C18.7818091,8.58388382 18.5208963,8.77608299 18.1944232,8.90604149 C17.8677842,9.03583402 17.476083,9.10089627 17.0196515,9.10089627" id="Fill-6"></path>
                <path d="M22.0768631,3.99117012 L22.4614274,3.99117012 C22.9319668,3.99117012 23.2664066,3.89108714 23.4649129,3.69092116 C23.6632531,3.49075519 23.7625062,3.14834855 23.7625062,2.66370124 C23.7625062,2.1966473 23.6765311,1.86220747 23.5044149,1.66021577 C23.3322988,1.45822407 23.0162822,1.3573112 22.5561992,1.3573112 L22.0768631,1.3573112 L22.0768631,3.99117012 Z M20.4859917,8.99548548 L20.4859917,0.261543568 L22.4878174,0.261543568 C22.9477344,0.261543568 23.3427552,0.299385892 23.6730456,0.374904564 C24.0030041,0.450423237 24.2901411,0.576896266 24.5342905,0.754157676 C24.7782739,0.931419087 24.9610124,1.17208299 25.0820083,1.47581743 C25.2033361,1.77955187 25.263917,2.15100415 25.263917,2.5900083 C25.263917,3.13772614 25.1822573,3.58552697 25.0189378,3.93324481 C24.8556183,4.28096266 24.5860747,4.53374274 24.2103071,4.69175104 L25.4219253,8.99548548 L23.8257427,8.99548548 L22.7827552,5.00776763 L22.0768631,5.00776763 L22.0768631,8.99548548 L20.4859917,8.99548548 Z" id="Fill-8"></path>
                <path d="M27.8453112,7.87877178 L28.2982573,7.87877178 C28.4564315,7.87877178 28.5950207,7.86482988 28.7145228,7.83661411 C28.8338589,7.80856432 28.9339419,7.77520332 29.0147718,7.73653112 C29.0954357,7.6980249 29.1629876,7.63478838 29.2175934,7.54682158 C29.2720332,7.45918672 29.313195,7.37835685 29.3414108,7.3046639 C29.3694606,7.23080498 29.3905394,7.11943568 29.4046473,6.97005809 C29.4185892,6.82084647 29.4273859,6.69354357 29.4308714,6.58814938 C29.4343568,6.48275519 29.4361826,6.32657261 29.4361826,6.11926971 L29.4361826,2.92707054 C29.4361826,2.71993361 29.4325311,2.55312863 29.4255602,2.4266556 C29.4185892,2.30018257 29.4019917,2.17304564 29.3756017,2.04474689 C29.3493776,1.91661411 29.3105394,1.817361 29.2595851,1.74715353 C29.2087967,1.67694606 29.1412448,1.61271369 29.0569295,1.55478838 C28.9726141,1.49686307 28.8672199,1.45653112 28.7409129,1.43362656 C28.6144398,1.41088797 28.4615768,1.39943568 28.2824896,1.39943568 L27.8453112,1.39943568 L27.8453112,7.87877178 Z M26.2544398,8.99561826 L26.2544398,0.261510373 L28.2878008,0.261510373 C28.8146058,0.261510373 29.2552697,0.314290456 29.6099585,0.419684647 C29.9646473,0.524912863 30.2491286,0.691883817 30.4634025,0.920099585 C30.6775104,1.14831535 30.8293776,1.42848133 30.9191701,1.76026556 C31.0086307,2.09221577 31.053444,2.50034855 31.053444,2.98499585 L31.053444,6.13520332 C31.053444,6.63395851 31.0076349,7.05702905 30.9163485,7.40474689 C30.8250622,7.75229876 30.6748548,8.04740249 30.4660581,8.28972614 C30.2570954,8.53204979 29.9787552,8.71030705 29.6310373,8.82433195 C29.2834855,8.93852282 28.8567635,8.99561826 28.3510373,8.99561826 L26.2544398,8.99561826 Z" id="Fill-10"></path>
                <path d="M33.4609793,5.92969295 L34.6304398,5.92969295 L34.0457095,2.34230705 L33.4609793,5.92969295 Z M31.4329295,8.99558506 L33.2081992,0.261643154 L34.8674523,0.261643154 L36.6374108,8.99558506 L35.1572448,8.99558506 L34.8042158,6.96736929 L33.2923485,6.96736929 L32.9341743,8.99558506 L31.4329295,8.99558506 Z" id="Fill-12"></path>
                <path d="M38.8711369,7.87351037 L39.4558672,7.87351037 C39.9298921,7.87351037 40.2581909,7.76280498 40.4409295,7.54156017 C40.6235021,7.32031535 40.7147884,6.95517012 40.7147884,6.44595851 C40.7147884,5.91915353 40.6120498,5.53724481 40.4067386,5.30023237 C40.2012614,5.06321992 39.8561992,4.94471369 39.3715519,4.94471369 L38.8711369,4.94471369 L38.8711369,7.87351037 Z M38.8711369,3.82255602 L39.3662407,3.82255602 C39.8332946,3.82255602 40.1546224,3.72247303 40.33039,3.52230705 C40.5058257,3.32214108 40.5936266,2.98504564 40.5936266,2.51085477 C40.5936266,2.26504564 40.5647469,2.06570954 40.5066556,1.91301245 C40.4488963,1.76014938 40.3513029,1.64529461 40.2143734,1.56795021 C40.077444,1.49077178 39.9255768,1.43981743 39.7587718,1.41525311 C39.5919668,1.3906888 39.3697261,1.37840664 39.0923817,1.37840664 L38.8711369,1.37840664 L38.8711369,3.82255602 Z M37.2802656,8.99550207 L37.2802656,0.261560166 L39.4190207,0.261560166 C39.8228382,0.261560166 40.1748714,0.297576763 40.4751203,0.369609959 C40.7755353,0.441643154 41.0422573,0.560979253 41.2757842,0.727784232 C41.5094772,0.894589212 41.6857427,1.12546058 41.8052448,1.42056432 C41.9245809,1.71550207 41.9826722,2.0720166 41.9791867,2.48977593 C41.9755353,3.56811618 41.5471535,4.17027386 40.6937095,4.29674689 C41.2100581,4.39500415 41.5954523,4.62073029 41.8500581,4.97359336 C42.1046639,5.32662241 42.2336266,5.82272199 42.2373212,6.46172614 C42.2407635,7.29060581 42.0334606,7.92014938 41.6157012,8.35035685 C41.1977759,8.78039834 40.5884813,8.99550207 39.7876515,8.99550207 L37.2802656,8.99550207 Z" id="Fill-14"></path>
                <polygon id="Fill-16" points="43.0539917 8.99553527 43.0539917 0.261593361 44.6448631 0.261593361 44.6448631 7.89462241 46.7361494 7.89462241 46.7361494 8.99553527"></polygon>
                <polygon id="Fill-18" points="47.3631867 8.99553527 47.3631867 0.261593361 51.0189544 0.261593361 51.0189544 1.38358506 48.9540581 1.38358506 48.9540581 3.89113693 50.5870871 3.89113693 50.5870871 5.01312863 48.9540581 5.01312863 48.9540581 7.89462241 51.0453444 7.89462241 51.0453444 8.99553527"></polygon>
                <path d="M55.7394191,5.92969295 L56.9088797,5.92969295 L56.3241494,2.34230705 L55.7394191,5.92969295 Z M53.7113693,8.99558506 L55.486639,0.261643154 L57.1458921,0.261643154 L58.9158506,8.99558506 L57.4356846,8.99558506 L57.0826556,6.96736929 L55.5707884,6.96736929 L55.2126141,8.99558506 L53.7113693,8.99558506 Z" id="Fill-20"></path>
                <polygon id="Fill-22" points="59.5587054 8.99553527 59.5587054 0.261593361 60.654473 0.261593361 62.7930622 5.2079834 62.7930622 0.261593361 64.1100747 0.261593361 64.1100747 8.99553527 63.0670871 8.99553527 60.9072531 3.79619917 60.9072531 8.99553527"></polygon>
                <path d="M66.7916017,7.87877178 L67.2445477,7.87877178 C67.402722,7.87877178 67.5413112,7.86482988 67.6608133,7.83661411 C67.7801494,7.80856432 67.8802324,7.77520332 67.9610622,7.73653112 C68.0417261,7.6980249 68.109278,7.63478838 68.1638838,7.54682158 C68.2183237,7.45918672 68.2594855,7.37835685 68.2877012,7.3046639 C68.315751,7.23080498 68.3368299,7.11943568 68.3509378,6.97005809 C68.3648797,6.82084647 68.3736763,6.69354357 68.3771618,6.58814938 C68.3806473,6.48275519 68.382473,6.32657261 68.382473,6.11926971 L68.382473,2.92707054 C68.382473,2.71993361 68.3788216,2.55312863 68.3718506,2.4266556 C68.3648797,2.30018257 68.3482822,2.17304564 68.3218921,2.04474689 C68.295668,1.91661411 68.2568299,1.817361 68.2058755,1.74715353 C68.1550871,1.67694606 68.0875353,1.61271369 68.0032199,1.55478838 C67.9189046,1.49686307 67.8135104,1.45653112 67.6872033,1.43362656 C67.5607303,1.41088797 67.4078672,1.39943568 67.2287801,1.39943568 L66.7916017,1.39943568 L66.7916017,7.87877178 Z M65.2007303,8.99561826 L65.2007303,0.261510373 L67.2340913,0.261510373 C67.7608963,0.261510373 68.2015602,0.314290456 68.556249,0.419684647 C68.9109378,0.524912863 69.1954191,0.691883817 69.4096929,0.920099585 C69.6238008,1.14831535 69.775668,1.42848133 69.8654606,1.76026556 C69.9549212,2.09221577 69.9997344,2.50034855 69.9997344,2.98499585 L69.9997344,6.13520332 C69.9997344,6.63395851 69.9539253,7.05702905 69.862639,7.40474689 C69.7713527,7.75229876 69.6211452,8.04740249 69.4123485,8.28972614 C69.2033859,8.53204979 68.9250456,8.71030705 68.5773278,8.82433195 C68.2297759,8.93852282 67.8030539,8.99561826 67.2973278,8.99561826 L65.2007303,8.99561826 Z" id="Fill-24"></path>
                <path d="M3.1753195,23.3747552 C2.79955187,23.3747552 2.46760166,23.3272863 2.17963485,23.2325145 C1.89166805,23.1377427 1.65382573,23.0059585 1.46594191,22.8374938 C1.27805809,22.6688631 1.12519502,22.4599004 1.00768465,22.2106058 C0.889842324,21.9613112 0.807518672,21.6935934 0.760049793,21.4072863 C0.712746888,21.1209793 0.689012448,20.7988216 0.689012448,20.4406473 L0.689012448,17.395834 C0.689012448,17.0165809 0.713410788,16.6803154 0.762705394,16.3870373 C0.811834025,16.0939253 0.894323651,15.8217261 1.01034025,15.5704398 C1.12619087,15.3194855 1.27805809,15.1131784 1.46594191,14.9515187 C1.65382573,14.7900249 1.89083817,14.6637178 2.17714523,14.5722656 C2.46328631,14.4811452 2.79606639,14.4353361 3.1753195,14.4353361 C3.61083817,14.4353361 3.98295436,14.4932614 4.29216598,14.609112 C4.60104564,14.7251286 4.84519502,14.8954191 5.02428216,15.1201494 C5.20336929,15.3450456 5.3333278,15.6074523 5.41415768,15.9077012 C5.49482158,16.2079502 5.5353195,16.5583237 5.5353195,16.9586556 L5.5353195,17.7067054 L4.00237344,17.7067054 L4.00237344,16.9639668 C4.00237344,16.5284481 3.97946888,16.2351701 3.93382573,16.0841328 C3.84253942,15.789195 3.61946888,15.6311867 3.26494606,15.6101079 L3.18063071,15.6101079 C3.04718672,15.6101079 2.93034025,15.6258755 2.83025726,15.6574108 C2.73017427,15.689112 2.64851452,15.7390705 2.58527801,15.8076183 C2.52204149,15.876 2.47108714,15.949029 2.43258091,16.0262075 C2.39390871,16.1035519 2.36486307,16.2044647 2.34560996,16.329112 C2.32635685,16.4537593 2.31407469,16.5687801 2.30876349,16.6741743 C2.30361826,16.7795685 2.30079668,16.9130124 2.30079668,17.0745062 L2.30079668,20.7724315 C2.30079668,21.2852946 2.36486307,21.6504398 2.49316183,21.8681992 C2.62129461,22.0859585 2.85034025,22.1948382 3.18063071,22.1948382 C3.29282988,22.1948382 3.39208299,22.1817261 3.47822407,22.1551701 C3.56419917,22.1289461 3.63623237,22.0955851 3.69415768,22.0552531 C3.75208299,22.0149212 3.80121162,21.9569959 3.84170954,21.8813112 C3.88204149,21.8057925 3.91274689,21.735751 3.93382573,21.6705228 C3.95490456,21.6056266 3.9706722,21.5151701 3.98129461,21.3993195 C3.99175104,21.2834689 3.99789212,21.1852116 3.99971784,21.1043817 C4.00154357,21.0235519 4.00237344,20.9130124 4.00237344,20.7724315 L4.00237344,19.9928465 L5.5353195,19.9928465 L5.5353195,20.709195 C5.5353195,21.035834 5.51241494,21.329112 5.46677178,21.589029 C5.42112863,21.8489461 5.34295436,22.0929295 5.23241494,22.3211452 C5.12170954,22.549527 4.978639,22.7390705 4.80303734,22.8901079 C4.62743568,23.0411452 4.40270539,23.1596515 4.12884647,23.2457925 C3.85482158,23.3317676 3.53697925,23.3747552 3.1753195,23.3747552" id="Fill-26"></path>
                <polygon id="Fill-28" points="6.42049793 23.2693942 6.42049793 14.5354523 8.01136929 14.5354523 8.01136929 22.1684813 10.1026556 22.1684813 10.1026556 23.2693942"></polygon>
                <polygon id="Fill-30" points="10.7296929 23.2693942 10.7296929 14.5354523 14.3854606 14.5354523 14.3854606 15.657444 12.3205643 15.657444 12.3205643 18.1649959 13.9535934 18.1649959 13.9535934 19.2869876 12.3205643 19.2869876 12.3205643 22.1684813 14.4118506 22.1684813 14.4118506 23.2693942"></polygon>
                <path d="M16.6877842,20.2035519 L17.8572448,20.2035519 L17.2725145,16.616166 L16.6877842,20.2035519 Z M14.6597344,23.269444 L16.4350041,14.5355021 L18.0942573,14.5355021 L19.8642158,23.269444 L18.3840498,23.269444 L18.0310207,21.2412282 L16.5191535,21.2412282 L16.1609793,23.269444 L14.6597344,23.269444 Z" id="Fill-32"></path>
                <polygon id="Fill-34" points="20.5070705 23.2693942 20.5070705 14.5354523 21.6028382 14.5354523 23.7414274 19.4818423 23.7414274 14.5354523 25.0584398 14.5354523 25.0584398 23.2693942 24.0154523 23.2693942 21.8556183 18.0700581 21.8556183 23.2693942"></polygon>
                <polygon id="Fill-36" points="28.5672365 23.2693942 28.5672365 14.5354523 32.2230041 14.5354523 32.2230041 15.657444 30.1581079 15.657444 30.1581079 18.1649959 31.7911369 18.1649959 31.7911369 19.2869876 30.1581079 19.2869876 30.1581079 22.1684813 32.2493942 22.1684813 32.2493942 23.2693942"></polygon>
                <polygon id="Fill-38" points="32.9501743 23.2693942 32.9501743 14.5354523 34.0459419 14.5354523 36.1845311 19.4818423 36.1845311 14.5354523 37.5015436 14.5354523 37.5015436 23.2693942 36.458556 23.2693942 34.298722 18.0700581 34.298722 23.2693942"></polygon>
                <polygon id="Fill-40" points="38.5921992 23.2693942 38.5921992 14.5354523 42.2479668 14.5354523 42.2479668 15.657444 40.1830705 15.657444 40.1830705 18.1649959 41.8160996 18.1649959 41.8160996 19.2869876 40.1830705 19.2869876 40.1830705 22.1684813 42.2743568 22.1684813 42.2743568 23.2693942"></polygon>
                <path d="M44.5660083,18.265029 L44.9505726,18.265029 C45.421112,18.265029 45.7555519,18.1649461 45.9540581,17.9647801 C46.1523983,17.7646141 46.2516515,17.4222075 46.2516515,16.9375602 C46.2516515,16.4705062 46.1656763,16.1360664 45.9935602,15.9340747 C45.821444,15.732083 45.5054274,15.6311701 45.0453444,15.6311701 L44.5660083,15.6311701 L44.5660083,18.265029 Z M42.9751369,23.2693444 L42.9751369,14.5354025 L44.9769627,14.5354025 C45.4368797,14.5354025 45.8319004,14.5732448 46.1621909,14.6487635 C46.4921494,14.7242822 46.7792863,14.8507552 47.0234357,15.0280166 C47.2674191,15.205278 47.4501577,15.4459419 47.5711535,15.7496763 C47.6924813,16.0534108 47.7530622,16.4248631 47.7530622,16.8638672 C47.7530622,17.4115851 47.6714025,17.8593859 47.508083,18.2071037 C47.3447635,18.5548216 47.0752199,18.8076017 46.6994523,18.96561 L47.9110705,23.2693444 L46.314888,23.2693444 L45.2719004,19.2816266 L44.5660083,19.2816266 L44.5660083,23.2693444 L42.9751369,23.2693444 Z" id="Fill-42"></path>
                <path d="M50.9297095,23.3852946 C50.1043154,23.3852946 49.5101245,23.1272033 49.146473,22.6108548 C48.7831535,22.0946722 48.6014108,21.3431369 48.6014108,20.356249 L48.6014108,17.5117676 C48.6014108,17.009527 48.6407469,16.5768299 48.719917,16.2131784 C48.7989212,15.8498589 48.9313693,15.5310207 49.1175934,15.2571618 C49.3036515,14.9831369 49.560083,14.7778257 49.886722,14.6407303 C50.213361,14.5038008 50.6136929,14.4354191 51.0877178,14.4354191 C51.9516183,14.4354191 52.5715353,14.6470373 52.9473029,15.0701079 C53.3229046,15.4933444 53.5109544,16.1351701 53.5109544,16.9954191 L53.5109544,17.4221411 L51.9884647,17.4221411 L51.9884647,16.969195 C51.9884647,16.776 51.9841494,16.6179917 51.9753527,16.4950041 C51.966556,16.3721826 51.9454772,16.2483651 51.9121162,16.1237178 C51.8787552,15.9990705 51.8304564,15.9033029 51.7672199,15.8365809 C51.7041494,15.7698589 51.6180083,15.7154191 51.5091286,15.6732614 C51.400249,15.6311037 51.266805,15.6100249 51.1087967,15.6100249 C50.9892946,15.6100249 50.8830705,15.6251286 50.7901245,15.6548382 C50.6970124,15.6847137 50.6188382,15.7215602 50.5557676,15.7655436 C50.4925311,15.809361 50.4389212,15.8717676 50.3951037,15.9524315 C50.3511203,16.0332614 50.3177593,16.1114357 50.2948548,16.1869544 C50.2721162,16.262473 50.2545228,16.3599004 50.2422407,16.4792365 C50.2299585,16.5987386 50.2219917,16.7041328 50.2185062,16.7952531 C50.2150207,16.8867054 50.213361,17.0043817 50.213361,17.1482822 L50.213361,20.6724315 C50.213361,21.1992365 50.2782573,21.5846307 50.4082158,21.8286141 C50.5381743,22.0727635 50.7856432,22.1947552 51.1509544,22.1947552 C51.3406639,22.1947552 51.4995021,22.1587386 51.6278008,22.0868714 C51.7559336,22.0148382 51.8560166,21.9059585 51.9278838,21.7602324 C51.999917,21.6145062 52.0508714,21.4477012 52.0807469,21.2596515 C52.1104564,21.0719336 52.1255602,20.8445477 52.1255602,20.5774938 L52.1255602,19.8611452 L51.1824896,19.8611452 L51.1824896,18.8339253 L53.5582573,18.8339253 L53.5582573,23.269444 L52.5258921,23.269444 L52.4098755,22.3844647 C52.146639,23.0516846 51.653029,23.3852946 50.9297095,23.3852946" id="Fill-44"></path>
                <polygon id="Fill-46" points="55.7130788 23.2693942 55.7130788 19.9454108 53.9324979 14.5354523 55.4181411 14.5354523 56.4979751 18.0121328 57.5305062 14.5354523 59.0002158 14.5354523 57.2302573 19.9454108 57.2302573 23.2693942"></polygon>
                <path d="M30.7653444,74.9355519 C25.6962988,74.9355519 21.5869212,70.8266722 21.5869212,65.7569627 C21.5869212,61.6364647 24.2992863,58.1514855 28.0375436,56.9896598 L28.0375436,60.4074191 C26.0916515,61.401112 24.7567137,63.4208631 24.7567137,65.7569627 C24.7567137,69.0758008 27.4458423,71.7655934 30.7653444,71.7655934 C34.0850124,71.7655934 36.7741411,69.0758008 36.7741411,65.7569627 C36.7741411,63.4142241 35.4323983,61.3909876 33.4777095,60.3992863 L33.4777095,56.9853444 C37.2234357,58.1420249 39.9454274,61.6304896 39.9454274,65.7569627 C39.9454274,70.8266722 35.8358838,74.9355519 30.7653444,74.9355519 L30.7653444,74.9355519 Z M29.4558008,55.2162158 C29.4558008,54.6288299 30.0455104,53.9820249 30.7698257,53.9820249 C31.4924813,53.9820249 32.0770456,54.6288299 32.0770456,55.2162158 L32.0770456,61.2754689 C32.0770456,61.8600332 31.4924813,62.5000332 30.7698257,62.5000332 C30.0455104,62.5000332 29.4558008,61.8600332 29.4558008,61.2754689 L29.4558008,55.2162158 Z M30.7623568,48.2445975 C21.0167967,48.2445975 13.1163817,56.1456763 13.1163817,65.8922324 C13.1163817,75.6427718 21.0167967,83.5420249 30.7623568,83.5420249 C40.508083,83.5420249 48.4084979,75.6427718 48.4084979,65.8922324 C48.4084979,56.1456763 40.508083,48.2445975 30.7623568,48.2445975 L30.7623568,48.2445975 Z" id="Fill-48"></path>
                <path d="M10.5047137,65.7378755 C10.5047137,64.9378755 9.79583402,64.2895768 9.14853112,64.2895768 L1.42039834,64.2895768 C0.768614108,64.2895768 0.0532614108,64.9378755 0.0532614108,65.7378755 C0.0532614108,66.5401992 0.768614108,67.1919834 1.42039834,67.1919834 L9.14853112,67.1919834 C9.79583402,67.1919834 10.5047137,66.5401992 10.5047137,65.7378755" id="Fill-50"></path>
                <path d="M61.479751,65.7378755 C61.479751,64.9378755 60.7708714,64.2895768 60.1234025,64.2895768 L52.3954357,64.2895768 C51.7443154,64.2895768 51.0289627,64.9378755 51.0289627,65.7378755 C51.0289627,66.5401992 51.7443154,67.1919834 52.3954357,67.1919834 L60.1234025,67.1919834 C60.7708714,67.1919834 61.479751,66.5401992 61.479751,65.7378755" id="Fill-52"></path>
                <path d="M30.7698091,96.4529959 C31.5684813,96.4529959 32.217278,95.7441162 32.217278,95.0966473 L32.217278,87.3693444 C32.217278,86.71839 31.5684813,86.0022075 30.7698091,86.0022075 C29.9681494,86.0022075 29.3148714,86.71839 29.3148714,87.3693444 L29.3148714,95.0966473 C29.3148714,95.7441162 29.9681494,96.4529959 30.7698091,96.4529959" id="Fill-54"></path>
                <path d="M57.4241328,80.9938091 C57.8209793,80.3003651 57.5278672,79.3848465 56.9668714,79.0631867 L50.2594855,75.2248465 C49.6940083,74.901195 48.7504398,75.1086639 48.3537593,75.8036017 C47.9555851,76.4985394 48.2521826,77.4206971 48.8176598,77.7436846 L55.5252116,81.5821909 C56.0868714,81.9035187 57.0251286,81.6902407 57.4241328,80.9938091" id="Fill-56"></path>
                <path d="M15.5137925,92.3982739 C16.2074025,92.7951203 17.1220913,92.5020083 17.4435851,91.9400166 L21.2820913,85.2334606 C21.6059087,84.6678174 21.3984398,83.723751 20.704,83.3270705 C20.0092282,82.9287303 19.0862407,83.2261577 18.7634191,83.7911369 L14.9249129,90.4983568 C14.6034191,91.0596846 14.817361,92.0000996 15.5137925,92.3982739" id="Fill-58"></path>
                <path d="M46.0789876,92.3639004 C46.7725975,91.9650622 46.9813942,91.0273029 46.6592365,90.466805 L42.8069544,83.766888 C42.4808133,83.2022407 41.5631369,82.9054772 40.869029,83.3043154 C40.1734274,83.7033195 39.9651286,84.6488797 40.2917676,85.2145228 L44.1433859,91.91361 C44.4655436,92.4741079 45.3833859,92.7634025 46.0789876,92.3639004" id="Fill-60"></path>
                <path d="M4.14393361,81.0537759 C4.54194191,81.746556 5.47953527,81.9555187 6.0406971,81.6325311 L12.7392863,77.780083 C13.3049295,77.4556017 13.6030207,76.5372614 13.2025228,75.8438174 C12.8043485,75.1480498 11.8581245,74.939917 11.2939751,75.2642324 L4.59472199,79.1166805 C4.03339419,79.4390041 3.74409959,80.3581743 4.14393361,81.0537759" id="Fill-62"></path>
                <path d="M30.7698091,45.4787718 C31.5684813,45.4787718 32.217278,44.7698921 32.217278,44.1232531 L32.217278,36.3944564 C32.217278,35.7426722 31.5684813,35.0279834 30.7698091,35.0279834 C29.9681494,35.0279834 29.3148714,35.7426722 29.3148714,36.3944564 L29.3148714,44.1232531 C29.3148714,44.7698921 29.9681494,45.4787718 30.7698091,45.4787718" id="Fill-64"></path>
                <path d="M13.1820415,55.6736929 C13.5803817,54.9787552 13.2874357,54.0647303 12.7247801,53.7430705 L6.01739419,49.9045643 C5.45175104,49.5804149 4.5093444,49.7877178 4.11166805,50.4819917 C3.71349378,51.1782573 4.01092116,52.0990871 4.57639834,52.4235685 L11.2836183,56.2619087 C11.8449461,56.5834025 12.7838672,56.3701245 13.1820415,55.6736929" id="Fill-66"></path>
                <path d="M40.8339917,48.1569129 C41.5280996,48.5535934 42.4416266,48.2606473 42.7637842,47.6994855 L46.6022905,40.9920996 C46.9266058,40.4257925 46.7191369,39.4832199 46.025029,39.0857095 C45.3292614,38.6865394 44.4072697,38.9847967 44.0834523,39.5504398 L40.2449461,46.2569959 C39.9234523,46.8196515 40.1368963,47.7587386 40.8339917,48.1569129" id="Fill-68"></path>
                <path d="M20.6683485,48.1743402 C21.3617925,47.7753361 21.5707552,46.8379087 21.2477676,46.2767469 L17.3954855,39.5768299 C17.0695104,39.0118506 16.1524979,38.716083 15.45839,39.1149212 C14.7619585,39.5139253 14.5544896,40.4594855 14.8802988,41.0242988 L18.731917,47.722722 C19.0555685,48.2840498 19.971917,48.5740083 20.6683485,48.1743402" id="Fill-70"></path>
                <path d="M48.3332614,55.6422407 C48.7316017,56.3351867 49.669029,56.5441494 50.2303568,56.2218257 L56.9287801,52.3693776 C57.4942573,52.0442324 57.7925145,51.1257261 57.3935104,50.4322822 C56.9930124,49.7373444 56.049112,49.5283817 55.4834689,49.853527 L48.7842158,53.7059751 C48.222888,54.0281328 47.9329295,54.9474689 48.3332614,55.6422407" id="Fill-72"></path>
            </g>
        </g>
    </g>
</svg>